<svg width="416" height="521" viewBox="0 0 416 521" fill="none" xmlns="http://www.w3.org/2000/svg">
<path fill-rule="evenodd" clip-rule="evenodd" d="M217.638 0.138664C216.748 0.468037 216.43 1.29849 216.425 3.31142C216.423 4.30728 216.311 5.29455 216.178 5.50524C215.981 5.81598 214.319 5.58579 207.367 4.28435C194.9 1.95036 191.579 1.50403 190.724 2.04754C190.099 2.44542 190.022 3.71046 190.457 6.41596C190.696 7.89915 190.831 9.17278 190.758 9.24587C190.685 9.31897 188.401 9.2261 185.683 9.0392C179.492 8.61351 172.629 8.21161 168.013 8.00493L164.459 7.84554L164.659 12.388L164.859 16.9304L158.753 17.1053C151.586 17.3108 140.121 18.3153 138.1 18.9149C137.391 19.1251 137.452 19.4963 138.759 22.9339C140.209 26.7462 140.206 27.833 138.745 28.5407C138.193 28.8079 136.58 29.1722 135.161 29.3505C127.278 30.341 114.86 32.806 114.047 33.5418C113.013 34.4772 113.59 36.6056 115.933 40.5054C117.343 42.8528 117.416 43.2659 116.525 43.8496C116.114 44.1193 113.354 44.9552 110.392 45.7071C101.494 47.9657 91.8483 51.3274 90.7349 52.5575C90.2808 53.0594 90.286 53.1692 90.822 54.3812C91.1359 55.0904 92.3138 57.0557 93.4398 58.7487C94.6661 60.5926 95.4525 62.062 95.4011 62.4131C95.3326 62.8821 94.3981 63.3617 90.7289 64.8113C81.0202 68.6466 71.0679 73.1371 69.2528 74.5011C68.4745 75.0859 68.8071 75.6437 72.0658 79.2238C73.5728 80.8793 75.099 82.7904 75.4576 83.471L76.1092 84.7079L75.42 85.2723C75.0411 85.5828 72.1788 87.1305 69.059 88.7114C60.2734 93.1638 49.8797 99.569 49.8797 100.531C49.8797 100.994 51.2356 102.272 55.2047 105.549C56.9508 106.991 58.5523 108.493 58.763 108.887C59.2492 109.796 58.878 110.247 56.231 111.966C46.7809 118.105 38.5962 124.002 35.26 127.076L33.6834 128.528L34.5975 129.317C35.1 129.751 36.648 130.802 38.0374 131.653C42.3987 134.325 45.2931 136.264 45.2931 136.513C45.2931 136.795 42.4752 139.174 36.6933 143.774C29.7274 149.316 23.1959 155.389 21.5671 157.839C20.9788 158.723 20.9169 158.988 21.2148 159.347C21.748 159.989 24.5693 161.237 29.061 162.817C31.2485 163.586 33.1012 164.379 33.178 164.579C33.4208 165.212 31.0168 167.985 23.9352 175.237C14.0523 185.36 10.6072 189.417 10.6072 190.935C10.6072 191.718 12.0396 192.197 16.9137 193.044C21.2816 193.802 24.0432 194.45 25.0328 194.95C25.8343 195.354 25.8375 195.365 25.3407 196.128C25.0646 196.551 23.5135 198.317 21.8939 200.051C15.3382 207.07 3.44065 222.516 3.44065 224.008C3.44065 224.275 3.73075 224.583 4.08563 224.693C4.44023 224.802 7.95555 224.995 11.8971 225.123C15.8511 225.251 19.4211 225.496 19.8612 225.671C20.6377 225.979 20.6475 226.009 20.2241 226.827C19.9853 227.29 18.3619 229.452 16.617 231.632C9.72855 240.241 0.0537455 255.896 0.348719 257.957C0.422105 258.469 0.612737 258.52 2.15067 258.438C3.09665 258.387 6.57958 257.968 9.89051 257.506C15.9408 256.663 18.6337 256.474 18.6337 256.893C18.6337 257.138 16.4668 260.7 13.2786 265.697C7.08382 275.404 -0.91459 291.966 0.101049 292.982C0.196794 293.078 3.14797 292.174 6.65956 290.975C13.8983 288.501 17.7938 287.34 18.8467 287.34C19.5057 287.34 19.555 287.423 19.4125 288.301C19.3268 288.83 18.4233 290.733 17.4048 292.529C11.5675 302.826 3.47247 322.073 3.78435 324.914L3.87064 325.699L5.16061 325.271C5.8701 325.035 8.64354 323.806 11.3238 322.54C18.8449 318.986 23.2982 316.95 24.0369 316.726C24.6409 316.543 24.6894 316.592 24.5079 317.196C24.3967 317.566 23.2721 320.062 22.0091 322.742C18.8779 329.387 16.3117 335.618 14.9426 339.9C12.621 347.162 10.7958 354.958 10.9471 356.967L11.0372 358.164L12.4705 357.433C13.2588 357.031 17.2382 354.273 21.3137 351.304C28.9523 345.738 31.7152 343.898 32.001 344.183C32.2114 344.394 31.2797 347.213 29.3651 352.158C26.2563 360.187 23.5714 369.735 21.9177 378.641C21.031 383.416 20.6821 388.059 21.1867 388.371C21.7474 388.717 24.6363 386.276 33.2448 378.182C38.4454 373.292 41.521 370.534 42.1794 370.171C42.5968 369.941 42.62 370.041 42.3895 371.067C42.2471 371.702 41.4077 374.504 40.5248 377.294C37.2835 387.536 35.9316 393.057 35.1055 399.424C34.5115 404.003 34.2168 415.018 34.6586 416.145C34.9748 416.951 34.9802 416.953 35.6828 416.431C36.5795 415.766 40.6567 411.086 45.0068 405.73C46.8637 403.444 52.0893 397.007 56.6191 391.425C61.1489 385.843 67.4305 378.168 70.5783 374.369C73.7264 370.57 76.4385 367.203 76.6057 366.888L76.9092 366.315L76.2597 366.888C75.1434 367.873 64.9965 379.973 50.496 397.611L36.55 414.575L36.2983 411.76C35.8683 406.949 37.1227 398.269 39.8443 387.226C41.9673 378.612 44.6731 370.543 46.121 368.51C47.2178 366.969 51.8941 365.124 67.9393 359.899C80.5871 355.78 86.0603 354.097 86.2355 354.272C86.3255 354.363 86.2627 354.948 86.0956 355.574C85.9287 356.199 85.849 356.711 85.919 356.711C85.9886 356.711 86.5835 356.274 87.2408 355.74C88.8363 354.442 94.0965 351.506 94.3505 351.771C94.4612 351.887 96.096 354.421 97.9837 357.403L101.415 362.823L99.5359 365.429C94.6057 372.264 92.3491 374.94 90.5563 376.077C88.4235 377.429 83.8275 379.881 73.6725 385.086C62.2439 390.944 57.1248 393.853 56.2212 395.001C54.0363 397.779 50.9793 411.038 50.1474 421.347C49.7516 426.253 49.9373 437.595 50.4582 440.333C50.9644 442.994 51.3073 443.08 52.8334 440.933C55.477 437.213 62.8101 425.903 75.3807 406.16C82.508 394.966 89.0708 384.776 89.9643 383.514C91.9839 380.663 97.0374 375.525 99.3287 373.993C100.275 373.36 102.155 372.245 103.507 371.515L105.965 370.186L107.976 372.55C110.5 375.52 111.513 377.12 111.508 378.134C111.506 378.57 111.069 379.925 110.537 381.144C109.46 383.611 105.287 391.038 103.259 394.096C100.589 398.124 98.5727 399.726 80.9319 411.84L69.739 419.527L68.9773 423.02C68.5585 424.941 68.0609 427.61 67.8717 428.95C67.4001 432.288 67.407 450.459 67.8814 454.606C68.6038 460.921 69.5575 464.783 70.3943 464.783C71.1465 464.783 74.2178 458.841 91.1411 424.65C102.208 402.291 103.529 399.821 105.693 397.429C107.644 395.273 112.17 391.614 116.054 389.053C119.809 386.577 120.184 386.521 121.899 388.178C123.941 390.15 123.984 391.882 122.131 397.417C120.718 401.635 117.61 409.079 115.742 412.718C113.08 417.901 110.329 421.001 101.335 428.949C96.2204 433.469 85.999 443.031 85.999 443.296C85.999 443.399 85.7969 446.178 85.5498 449.473C84.8707 458.532 85.3308 463.827 87.5805 472.838C89.2354 479.467 91.1164 484.849 91.7789 484.849C92.249 484.849 93.6422 481.497 96.4248 473.669C103.832 452.831 111.242 432.468 113.428 426.943C117.089 417.691 117.818 416.415 121.839 412.231C125.163 408.771 132.066 402.332 133.906 400.975C135.173 400.04 135.959 400.1 136.886 401.202C137.596 402.045 137.643 402.256 137.471 403.785C136.931 408.558 131.601 426.999 129.179 432.477C128.128 434.852 125.873 438.032 121.866 442.788C107.949 459.307 105.712 462.171 105.231 464.081C104.789 465.837 104.846 470.444 105.352 473.8C106.357 480.466 108.672 488.054 111.48 493.879C113.891 498.882 115.311 500.285 116.05 498.394C116.383 497.542 124.163 465.803 128.435 447.87C129.881 441.799 131.331 436.188 131.658 435.4C132.532 433.293 134.262 430.705 137.596 426.513C145.83 416.161 151.378 410.228 152.293 410.794C153.792 411.72 147.475 444.387 144.653 450.306C144.127 451.41 140.325 457.388 136.204 463.592C132.083 469.796 128.164 475.976 127.495 477.327C126.387 479.563 126.283 479.957 126.337 481.73C126.456 485.658 128.933 494.496 131.147 498.894C133.331 503.231 138.823 510.648 139.849 510.648C140.557 510.648 141.013 508.636 142.03 501.031C144.368 483.544 147.872 459.526 149.514 449.733C150.221 445.517 150.267 445.38 151.871 442.715C153.744 439.605 161.698 427.63 164.737 423.348C166.894 420.306 167.58 419.564 167.919 419.903C168.541 420.523 168.23 430.185 167.249 440.703C166.239 451.525 165.206 456.732 162.928 462.489C162.211 464.302 159.107 470.739 156.031 476.794C150.076 488.517 149.064 490.807 149.064 492.563C149.064 495.603 151.751 502.159 154.865 506.718C157.695 510.86 164.818 517.924 165.648 517.411C166.663 516.784 167.319 505.061 168.136 472.952L168.566 456.039L171.615 450.02C180.44 432.599 184.488 425.273 185.006 425.792C185.497 426.282 185.45 460.398 184.954 463.636C184.127 469.033 182.812 473.105 177.365 487.142C175.866 491.005 174.165 495.556 173.586 497.256C172.632 500.054 172.564 500.449 172.872 501.413C173.742 504.139 177.805 510.175 180.73 513.085C183.947 516.286 190.146 520.107 192.122 520.108C192.782 520.108 192.926 519.958 193.087 519.096C193.313 517.894 193.411 519.441 191.021 486.707L189.115 460.615L192.623 451.447C196.622 440.993 200.48 431.318 201.278 429.738C201.577 429.147 201.938 428.663 202.08 428.663C202.758 428.663 203.423 432.576 204.662 443.856C206.912 464.35 206.482 469.73 200.966 490.132C199.538 495.415 198.481 500.091 198.088 502.873C197.806 504.862 197.832 505.083 198.511 506.568C199.426 508.567 202.286 511.412 205.545 513.566C209.989 516.503 213.727 518.024 217.187 518.302C219.107 518.456 219.256 518.426 219.583 517.814C220.04 516.961 219.996 516.651 217.264 501.618C212.935 477.802 210.708 464.081 210.703 461.199C210.698 458.428 218.956 428.511 219.884 427.937C221.084 427.196 225.228 446.721 226.883 460.913C227.724 468.124 227.452 472.169 225.182 486.197C224.472 490.579 223.608 496.561 223.26 499.489L222.627 504.814L223.288 505.883C224.106 507.206 226.259 508.85 228.899 510.167C232.416 511.921 233.773 512.189 239.219 512.201C244.705 512.213 245.743 511.962 245.902 510.588C246.066 509.171 242.512 496.449 234.526 469.859L231.1 458.453L232.945 447.07C235.88 428.96 236.846 424.103 237.562 423.865C238.08 423.692 238.892 425.539 240.758 431.132C244.305 441.768 247.009 451.805 247.886 457.599C248.815 463.732 248.425 489 247.228 500.216L247.071 501.68L249.55 502.746C253.067 504.256 255.527 504.724 258.855 504.516C263.107 504.251 270.629 502.343 271.483 501.314C272.388 500.224 271.138 496.89 260.163 471.103C252.182 452.352 251.689 451.092 251.689 449.46C251.69 447.211 252.751 428.678 253.135 424.22C253.498 419.991 253.938 417.59 254.423 417.188C255.011 416.699 256.096 418.394 258.416 423.422C263.155 433.694 267.454 445.578 268.713 451.883C270.031 458.488 270.609 465.208 271.193 480.692C271.592 491.263 271.844 492.876 273.254 493.864C274.09 494.449 279.145 494.46 281.932 493.883C284.281 493.396 293.578 488.87 295.385 487.332C296.434 486.44 296.517 486.257 296.579 484.715C296.616 483.769 296.814 482.886 297.04 482.661C297.257 482.443 298.358 482.01 299.486 481.697C304.784 480.229 310.347 476.627 317.191 470.234C319.083 468.467 322.172 465.711 324.056 464.11C328.277 460.522 330.807 458.18 330.807 457.859C330.807 457.376 330.258 457.637 328.897 458.766C325.041 461.966 321.533 464.209 320.385 464.209C319.235 464.209 318.374 461.568 313.293 442.466C308.106 422.964 305.656 413.312 305.397 411.36L305.205 409.911L306.373 410.836C310.159 413.835 331.155 434.974 334.61 439.265C337.25 442.545 338.651 445.987 338.153 447.971C338.059 448.346 337.52 449.324 336.956 450.145C335.295 452.56 336.638 451.479 340.936 446.941C347.013 440.526 351.468 435.075 355.173 429.523C356.172 428.025 357.904 425.889 359.02 424.776C362.101 421.704 366.775 414.427 371.141 405.905C372.813 402.64 373.72 401.218 374.849 400.089C376.57 398.368 378.097 395.864 380.459 390.889C382.488 386.614 384.073 382.678 385.284 378.898C386.366 375.522 387.357 373.69 388.293 373.334C390.18 372.616 393.667 363.845 395.871 354.275C397.739 346.163 398.536 343.812 399.419 343.812C400.244 343.812 401.431 342.025 401.852 340.151C402.323 338.059 401.717 338.078 400.772 340.185C400.159 341.551 399.792 342.064 399.538 341.909C398.653 341.37 353.095 306.572 351.265 305.037C350.14 304.094 348.933 302.813 348.584 302.191C347.916 301.002 347.921 300.366 348.628 297.014L348.914 295.653H362.202H375.489L387.332 302.134C403.589 311.029 403.353 310.893 404.003 311.771C405.056 313.194 404.757 319.703 403.182 329.622C402.454 334.208 402.256 336.237 402.51 336.492C402.903 336.885 404.112 331.09 405.2 323.602C406.092 317.464 406.858 314.383 407.814 313.088C409.677 310.566 411.04 301.898 411.604 288.99C411.843 283.523 411.877 283.293 412.614 282.23C414.022 280.198 414.338 277.766 414.352 268.85C414.359 264.435 414.301 258.695 414.224 256.094C414.084 251.429 414.092 251.348 414.799 250.217C415.486 249.118 415.515 248.886 415.497 244.627C415.476 239.893 415.196 236.809 414.072 228.967C413.288 223.489 413.147 220.791 413.491 217.819C413.868 214.567 412.53 205.681 410.083 195.178C409.679 193.444 409.215 190.421 409.052 188.461C408.564 182.599 406.812 175.482 402.907 163.502C402.06 160.901 400.632 156.45 399.736 153.612C395.462 140.085 384.804 116.698 376.826 103.341C371.903 95.0971 363.32 82.5147 360.816 79.8688C359.899 78.8996 359.241 78.7107 358.693 79.2585C358.456 79.4958 358.414 79.2702 358.531 78.3951C358.669 77.3648 358.548 76.9953 357.604 75.5654C356.39 73.7248 353.272 69.8675 348.166 63.8874C343.684 58.6372 341.76 56.628 338.977 54.2877C337.716 53.2274 334.419 50.1805 331.652 47.5171C322.683 38.8846 322.867 39.4026 332.309 49.3629C341.442 58.9967 344.854 62.8778 350.619 70.194C355.519 76.4131 357.753 79.6776 357.753 80.6198C357.753 81.6937 355.102 84.7268 345.787 94.307C333.702 106.737 311.926 128.035 307.936 131.328C306.851 132.224 306.632 132.302 306.061 131.996C303.917 130.849 294.678 122.91 294.775 122.299C294.806 122.104 301.862 112.892 310.454 101.827C336.374 68.4508 340.267 63.1565 340.267 61.2843C340.267 60.6143 336.711 56.5756 328.573 48.0024C322.026 41.1054 319.76 38.577 319.952 38.3849C320.017 38.3193 320.745 38.7797 321.569 39.408C323.677 41.0151 323.432 40.3646 321.103 38.1674C319.67 36.8155 318.797 36.2273 317.878 35.9942C316.383 35.6152 312.26 32.9149 307.301 29.0668C296.718 20.8556 295.172 19.9584 293.778 21.22C292.923 21.994 291.633 21.4014 283.456 16.4789C275.828 11.8869 272.532 10.0875 271.128 9.74925C270.5 9.59761 270.115 9.77477 269.033 10.711C268.304 11.3422 267.607 11.8585 267.485 11.8585C267.149 11.8585 262.542 9.93042 255.877 7.00018C249.23 4.07796 245.046 2.57155 244.265 2.81951C243.673 3.00728 243.089 4.13099 243.089 5.08069C243.089 5.4373 242.912 5.97192 242.695 6.26862C242.31 6.79493 242.244 6.79264 239.973 6.17001C238.692 5.81914 234.839 4.64583 231.409 3.56225C220.601 0.148408 218.813 -0.2962 217.638 0.138664ZM221.904 1.9495C224.441 2.48728 231.312 4.67708 236.415 6.57391C251.831 12.304 271.33 22.35 272.169 24.9944C272.367 25.6165 268.062 38.9072 257.531 70.194C249.011 95.5061 247.222 100.648 246.721 101.261C246.468 101.571 245.841 101.614 243.812 101.462C240.841 101.24 235.706 100.529 234.136 100.121C232.424 99.6776 232.364 99.2714 233.318 94.6424C235.025 86.3636 241.583 56.2021 246.238 35.2214C247.637 28.9148 248.871 23.0079 248.98 22.0952L249.178 20.4351L248.009 19.3232C245.719 17.1451 235.76 12.5838 226.033 9.25763C219.166 6.90988 218.436 6.36092 218.436 3.5462C218.436 2.50992 218.568 2.06387 218.938 1.84831C219.585 1.47163 219.662 1.47451 221.904 1.9495ZM197.223 3.70071C205.151 4.67622 220.66 8.85774 233.056 13.3618C241.446 16.4104 246.022 18.6357 247.208 20.2451C247.755 20.9881 247.769 21.1756 247.444 23.3983C247.254 24.698 246.385 28.922 245.513 32.7847C244.641 36.6475 241.347 51.3532 238.193 65.4641C235.04 79.575 231.935 93.2899 231.295 95.9421L230.131 100.764L229.085 100.614C228.51 100.532 226.878 100.388 225.459 100.295C222.149 100.077 217.332 99.6082 216.501 99.4228C215.95 99.3001 215.856 99.0928 215.856 97.9972C215.856 96.1832 216.701 88.188 219.172 66.6107C223.727 26.8388 224.257 21.4161 223.779 19.5106C223.644 18.972 223.212 18.595 222.232 18.1616C218.166 16.3622 204.39 12.2343 197.843 10.8535C195.554 10.3707 193.656 9.80257 193.113 9.43794C191.982 8.67772 191.527 7.39376 191.506 4.90354L191.49 2.96514L192.565 3.11248C193.156 3.19361 195.253 3.45819 197.223 3.70071ZM250.292 5.65603C262.543 10.6153 283.744 22.829 292.979 30.2472C294.618 31.5641 296.077 32.724 296.221 32.8246C296.541 33.0488 293.951 39.136 288.373 51.2744C277.16 75.6749 262.998 104.781 262.107 105.257C261.014 105.841 251.557 104.419 250.074 103.448C249.684 103.192 249.288 102.782 249.193 102.536C248.894 101.756 252.569 89.9802 262.692 59.2791C268.539 41.5503 272.489 29.2961 273.338 26.2575C273.823 24.5223 273.822 24.44 273.306 23.8696C271.565 21.9458 251.273 10.6712 247.247 9.39036C245.359 8.78981 244.236 7.56404 244.236 6.10351C244.236 4.08455 246.074 3.94868 250.292 5.65603ZM176.143 9.71142C185.254 10.4504 194.173 11.7192 201.667 13.342C209.006 14.9315 220.666 18.6463 221.943 19.8022C222.956 20.7192 222.597 26.0261 220.152 46.2578C219.532 51.3819 217.925 64.9492 216.58 76.4076C214.039 98.0543 213.553 101.429 212.879 102.103C212.541 102.441 211.54 102.46 206.622 102.222C200.021 101.902 199.146 101.667 198.838 100.127C198.468 98.2758 198.622 80.2047 199.397 34.6111L199.592 23.1079L197.906 22.4733C193.349 20.7585 185.111 19.1314 173.335 17.6204C169.736 17.1583 166.738 16.728 166.674 16.6638C166.378 16.368 164.867 9.98919 165.052 9.81634C165.723 9.18855 169.282 9.15501 176.143 9.71142ZM274.347 12.5686C282.897 16.8169 296.755 26.1078 307.014 34.47C312.335 38.8069 319.089 45.7427 318.691 46.4599C317.599 48.4227 289.011 95.2957 283.527 104.115C279.249 110.993 278.326 112.19 277.303 112.19C275.827 112.19 267.235 108.624 265.744 107.393L265.037 106.809L265.56 105.128C265.847 104.203 266.508 102.415 267.027 101.153C268.161 98.3977 285.022 61.6025 292.503 45.5581C295.439 39.2607 297.832 33.9718 297.82 33.805C297.789 33.3681 293.006 29.139 289.663 26.592C286.562 24.2299 279.339 19.3194 274.765 16.4634C270.489 13.7935 269.128 12.3068 270.085 11.3497C270.552 10.8827 271.498 11.1533 274.347 12.5686ZM174.004 19.5915C182.726 20.1989 189.767 21.3476 195.435 23.0882L198.438 24.0101L198.25 37.7855C197.541 90.008 197.236 103.492 196.702 106.313C196.556 107.079 196.345 107.439 196.066 107.397C192.323 106.835 188.336 106.457 186.153 106.457C184.653 106.457 183.181 106.325 182.881 106.165C182.582 106.005 182.211 105.392 182.058 104.803C181.619 103.112 179.821 85.1863 176.877 53.1311C176.088 44.5347 175.307 36.7303 175.142 35.7881C174.357 31.3081 174.28 31.0742 173.466 30.6528C171.15 29.4555 161.868 28.4731 150.664 28.2395L141.799 28.0548L140.705 25.1882C140.103 23.6116 139.641 21.9472 139.679 21.49C139.781 20.2617 140.941 19.5436 143.249 19.2819C145.812 18.9912 168.694 19.2214 174.004 19.5915ZM298.225 23.5279C301.859 25.7343 310.725 32.7251 318.311 39.3656C323.222 43.6638 332.603 52.9052 335.26 56.0604C338.119 59.4574 338.945 60.9096 338.715 62.1348C338.38 63.9227 335.162 68.2582 316.454 92.1235C312.438 97.2476 307.869 103.117 306.302 105.167C299.108 114.576 293.436 121.076 292.419 121.076C292.161 121.076 290.963 120.513 289.755 119.825C285.244 117.255 280.928 113.759 280.928 112.676C280.928 111.547 283.432 107.235 300.766 78.5071C309.894 63.3812 315.653 53.5679 317.975 49.1849L319.69 45.9491L318.908 44.8202C316.917 41.9467 306.313 32.2538 299.418 27.0042C296.068 24.4535 294.538 22.94 294.83 22.4664C295.128 21.9848 296.275 22.3434 298.225 23.5279ZM157.664 30.2114C164.764 30.519 170.963 31.1187 172.463 31.643C173.336 31.9477 173.368 32.0222 173.677 34.4488C174.494 40.8729 179.714 97.8355 180.328 107.03C180.751 113.371 180.692 113.952 179.594 114.245C178.585 114.514 165.948 113.95 165.591 113.62C165.457 113.496 163.051 101.998 160.243 88.0678C152.597 50.1335 151.118 43.3141 150.371 42.5705C149.957 42.1571 148.973 42.1055 142.101 42.1385C134.184 42.1763 125.169 42.6169 121.891 43.126C120.434 43.3522 119.971 43.3256 119.489 42.9876C118.006 41.9493 115.143 36.9846 115.293 35.7121C115.349 35.2371 115.697 34.7793 116.242 34.462C117.305 33.8442 122.186 32.861 131.005 31.4887C140.725 29.9763 146.192 29.7143 157.664 30.2114ZM149.962 43.8934C150.077 44.0112 151.541 51.1382 153.215 59.7309C154.889 68.3235 158.381 86.0266 160.975 99.071C163.568 112.115 165.691 123.039 165.691 123.345C165.691 123.807 165.414 123.936 164.067 124.105C161.563 124.417 151.976 124.067 150.651 123.615C149.59 123.252 149.461 123.083 148.718 121.076C148.28 119.894 146.642 114.927 145.077 110.04C138.4 89.1838 133.141 72.8373 130.795 65.6432L128.281 57.9389L124.985 57.9819C118.38 58.0685 112.205 58.944 103.342 61.0509L97.8954 62.3458L96.8018 61.11C94.145 58.1081 91.4315 53.5694 91.8695 52.8607C92.2834 52.1908 106.874 48.2068 115.382 46.4407C121.668 45.1358 130.385 44.0428 137.418 43.6776C142.392 43.4193 149.622 43.5437 149.962 43.8934ZM128.246 61.3792C129.78 66.058 144.564 113.356 147.309 122.366C150.549 133.003 151.267 135.595 151.037 135.826C150.156 136.707 138.382 136.78 136.403 135.917C134.726 135.185 133.158 133.306 131.477 130.015C130.617 128.331 126.084 118.31 121.402 107.747C112.394 87.4246 109.624 81.4411 107.928 78.6502L106.884 76.9305H105.484C101.56 76.9305 85.8863 81.1255 78.2462 84.2206C77.9332 84.3473 77.0508 83.538 75.23 81.4534C70.8463 76.4354 70.3757 75.7927 70.691 75.2576C71.6226 73.6758 87.3703 67.6395 100.332 63.8957C105.87 62.2965 117.559 59.8123 121.258 59.4491C122.441 59.3327 124.333 59.2197 125.463 59.1977L127.518 59.1575L128.246 61.3792ZM106.366 79.1521C107.439 80.4974 113.237 92.6017 118.52 104.524C135.075 141.89 137.605 147.843 137.132 148.316C136.661 148.787 131.359 149.149 124.784 149.159L118.707 149.169L106.979 129.604C90.5947 102.274 88.6311 99.1694 87.6584 99.057C85.7863 98.8411 77.6187 101.593 68.9426 105.362C66.42 106.457 63.5617 107.686 62.5911 108.092L60.8261 108.83L56.8579 105.589C54.6752 103.806 52.5411 102.028 52.1151 101.638L51.3408 100.929L53.1184 99.5056C59.4762 94.4142 80.8282 84.8071 94.3184 80.9681C98.8479 79.6793 104.126 78.4154 105.113 78.3839C105.467 78.3724 106.009 78.7044 106.366 79.1521ZM363.729 85.2336C368.092 91.3447 373.715 101.164 374.254 103.612C374.403 104.287 373.954 104.719 369.023 108.651C355.414 119.502 322.501 144.1 319.548 145.627L318.68 146.075L316.065 143.394C313.35 140.61 309.28 135.856 308.727 134.821C308.457 134.317 308.559 134.043 309.392 133.026C309.934 132.366 318.811 123.307 329.12 112.894C347.889 93.9364 354.897 86.6664 357.826 83.1158C359.065 81.6146 359.366 81.0547 359.271 80.4361C359.157 79.6979 359.22 79.728 360.387 80.969C361.067 81.6925 362.571 83.6117 363.729 85.2336ZM88.9765 102.515C91.0772 105.317 92.9052 108.302 106.405 130.975C122.261 157.602 126.229 164.36 126.091 164.498C126.026 164.563 123.01 164.82 119.387 165.069C112.976 165.511 109.456 165.862 107.584 166.246C105.74 166.625 103.736 164.3 80.6481 134.979C74.7234 127.455 71.7986 123.976 71.2087 123.749C70.9834 123.663 70.0592 123.884 69.1542 124.241C65.8043 125.562 56.4689 130.239 51.7897 132.941L46.9632 135.728L44.0499 134.09C40.2221 131.938 37.3102 130.079 36.3373 129.165C35.5833 128.457 35.5716 128.403 36.0506 127.868C37.569 126.169 47.1235 119.634 55.1829 114.781C60.4343 111.619 67.3651 108.073 73.0992 105.615C76.7281 104.059 86.4212 100.475 87.0671 100.45C87.2606 100.443 88.1197 101.372 88.9765 102.515ZM222.435 102.722C222.927 102.985 223.004 103.15 222.752 103.402C222.376 103.778 218.168 103.859 216.931 103.513C216.048 103.266 215.877 102.565 216.645 102.336C217.516 102.077 221.757 102.359 222.435 102.722ZM208.475 104.814C209.066 105.071 209.55 105.399 209.55 105.543C209.55 106.111 203.548 107.89 201.63 107.89C200.622 107.89 200.297 107.732 199.546 106.877C197.636 104.7 198.529 104.134 203.673 104.258C206.317 104.322 207.712 104.483 208.475 104.814ZM242.008 105.449C247.036 106.108 256.343 107.814 260.093 108.763C267.348 110.6 278.115 115.093 285.658 119.432C288.595 121.121 298.476 128.044 301.159 130.292C304.097 132.755 312.892 141.725 316.552 145.992C322.318 152.714 333.045 171.171 338.06 182.997C344.378 197.897 349.106 216.85 351.003 234.881C354.453 267.663 348.375 304.687 334.485 335.499C318.267 371.476 290.92 399.725 260.719 411.696C254.669 414.094 243.607 417.406 239.076 418.176C233.385 419.142 222.971 419.848 216.86 419.68C202.913 419.297 192.32 416.806 177.038 410.318C170.906 407.714 166.084 404.775 157.468 398.391C133.229 380.431 114.432 348.22 106.966 311.849C105.566 305.033 105.433 303.85 105.343 297.516C105.294 294.047 105.081 289.081 104.871 286.48C104.381 280.423 104.387 260.334 104.881 253.37C105.198 248.887 105.427 246.751 106.268 240.374C106.424 239.191 106.399 239.135 105.747 239.227C105.161 239.31 105.062 239.205 105.062 238.495C105.062 237.991 105.258 237.57 105.564 237.42C105.839 237.285 106.291 237.061 106.567 236.923C107.119 236.648 107.177 235.87 106.814 233.591L106.585 232.157L107.354 232.874L108.123 233.591L107.914 230.897C107.757 228.877 107.788 228.255 108.038 228.41C108.252 228.542 108.568 228.169 108.914 227.377C109.508 226.018 111.09 219.039 111.372 216.534C111.536 215.071 111.517 214.998 111.1 215.514C110.854 215.82 110.652 216.232 110.652 216.429C110.652 216.626 110.503 216.879 110.32 216.992C109.794 217.317 110.205 214.456 111.087 211.661C112.395 207.513 116.339 197.182 118.976 190.998C121.994 183.919 123.839 180.194 127.059 174.674C131.898 166.379 133.564 163.215 133.091 163.215C132.986 163.215 132.41 163.554 131.812 163.968C130.827 164.651 130.644 164.687 129.85 164.359C128.603 163.842 126.22 161.095 124.466 158.153C122.594 155.013 122.127 153.623 122.74 153.011C124.078 151.673 138.432 151.718 139.921 153.066C140.413 153.511 140.537 153.447 142.097 151.949L143.751 150.36L142.896 149.716C140.738 148.09 138.994 145.895 137.6 143.048C135.709 139.187 135.596 138.656 136.583 138.28C137.557 137.91 146.865 137.91 149.425 138.281C150.491 138.435 151.587 138.7 151.862 138.87C152.576 139.313 153.448 138.907 156.104 136.893C158.552 135.038 161.602 132.085 161.34 131.823C161.252 131.735 160.505 132.216 159.679 132.891C158.853 133.567 157.836 134.395 157.419 134.732C156.27 135.66 155.617 135.753 154.596 135.133C152.83 134.059 150.006 126.904 151.08 126.224C151.567 125.916 162.41 125.884 164.111 126.185C165.635 126.456 165.7 127.047 164.398 128.82C163.821 129.606 163.416 130.249 163.498 130.249C163.579 130.249 164.736 129.418 166.068 128.402C169.985 125.413 173.694 123.1 181.457 118.806C191.202 113.415 196.422 111.41 208.325 108.487C219.992 105.622 233.815 104.375 242.008 105.449ZM379.415 110.326C381.694 114.107 387.235 125.18 387.935 127.356C388.381 128.741 388.388 128.975 388.006 129.558C387.237 130.731 385.825 131.581 374.08 137.938C367.702 141.391 356.549 147.438 349.297 151.377C329.111 162.339 329.991 161.889 329.505 161.485C328.621 160.752 325.775 156.711 323.04 152.307C321.479 149.792 320.201 147.686 320.201 147.626C320.201 147.459 327.341 141.95 341.844 130.926C360.337 116.869 371.085 108.969 374.584 106.862L376.222 105.876L376.868 106.524C377.223 106.881 378.369 108.592 379.415 110.326ZM194.694 109.546C195.096 109.948 193.015 111.29 188.52 113.528L185.16 115.2L184.19 114.053C183.656 113.422 182.928 112.291 182.573 111.539C181.844 109.996 181.969 109.697 183.509 109.303C184.869 108.954 194.307 109.159 194.694 109.546ZM231.909 109.49C217.325 110.838 211.672 111.956 201.523 115.494C164.892 128.265 132.822 163.863 117.505 208.752C112.5 223.421 109.783 236.882 107.778 256.953C106.891 265.824 106.766 271.602 107.32 278.166C107.579 281.241 107.986 286.143 108.226 289.059C110.908 321.766 123.457 353.21 143.289 376.921C146.755 381.064 156.339 390.451 160.454 393.733C173.184 403.885 188.284 410.855 204.39 414.016C223.349 417.737 243.058 415.344 261.919 407.032C273.686 401.845 286.036 393.463 298.701 382.065C302.343 378.787 303.253 377.79 308.46 371.372C310.424 368.951 312.781 366.048 313.697 364.922C317.715 359.983 323.858 349.955 328.648 340.515C333.02 331.897 335.656 325.698 338.578 317.157C349.783 284.408 352.14 250.204 345.422 217.824C343.273 207.466 341.149 199.466 339.065 193.888C331.245 172.954 320.03 154.847 306.298 140.987C290.085 124.621 271.009 114.519 249.517 110.917C245.336 110.216 236.609 109.002 236.248 109.071C236.148 109.09 234.195 109.279 231.909 109.49ZM236.209 112.217C240.41 112.554 243.698 113.268 248.249 114.833C260.6 119.079 274.616 127.234 284.381 135.854C288.624 139.6 295.375 147.189 300.597 154.086C307.409 163.081 317.154 180.314 316.715 182.591C316.596 183.21 314.491 180.203 310.218 173.31C300.606 157.804 289.597 146.184 276.055 137.253C267.228 131.432 255.793 126.366 247.102 124.426C237.749 122.338 227.151 120.833 220.156 120.598C210.293 120.267 201.057 121.651 189.932 125.129C185.196 126.609 180.073 128.585 177.874 129.782C175.582 131.028 173.717 131.749 173.717 131.388C173.717 130.735 183.612 124.939 191.777 120.809C197.406 117.961 203.654 115.843 215.57 112.741C219.72 111.661 226.968 111.477 236.209 112.217ZM259.522 114.332C262.901 115.212 267.808 117.052 273.429 119.548C296.727 129.888 316.331 149.649 329.549 176.115C339.017 195.072 344.442 214.49 346.768 237.747C347.403 244.094 347.491 263.475 346.914 269.853C345.85 281.627 343.749 293.583 340.416 306.832C338.227 315.534 333.194 328.185 327.359 339.655C320.126 353.871 315.77 360.573 307.422 370.328C302.288 376.326 293.007 385.535 288.381 389.219C271.106 402.98 251.365 411.408 230.906 413.759C227.198 414.185 217.991 414.423 216.167 414.14C215.312 414.008 214.566 413.755 214.507 413.578C214.365 413.151 216.591 412.61 218.492 412.61C221.914 412.609 229.016 410.912 237.643 408.035C245.047 405.565 249.286 403.765 254.074 401.057C256.152 399.882 259.117 398.233 260.664 397.392C268.444 393.162 284.137 379.304 292.445 369.324C316.284 340.692 330.39 303.847 332.802 263.916C333.51 252.212 332.972 238.989 331.214 224.847C330.724 220.91 327.605 206.591 326.249 202.058C318.932 177.593 306.923 156.492 291.112 140.321C280.85 129.825 270.68 122.554 258.563 117.052C253.574 114.786 251.951 113.895 252.168 113.543C252.447 113.092 256.389 113.516 259.522 114.332ZM178.086 116.504C180.302 116.976 180.6 117.387 179.393 118.304C177.634 119.64 170.873 123.134 169.757 123.284C168.797 123.413 168.565 123.327 168.024 122.639C167.089 121.45 166.423 118.889 166.729 117.659C167.128 116.055 167.795 115.863 172.427 116.018C174.634 116.093 177.181 116.311 178.086 116.504ZM209.099 123.053C209.786 123.322 210.379 123.08 202.24 125.849C192.262 129.242 186.455 131.85 179.064 136.257C169.348 142.05 159.468 150.123 152.165 158.236C147.553 163.36 141.903 170.561 141.899 171.319C141.898 171.44 142.252 171.453 142.686 171.348L143.474 171.156L142.912 171.79C142.597 172.145 142.133 172.367 141.856 172.295C141.028 172.078 140.279 172.849 138.065 176.199C131.026 186.847 123.088 204.152 118.953 217.863C113.26 236.742 110.961 253.342 111.315 273.007C111.571 287.197 112.957 297.783 116.287 310.989C121.244 330.649 130.027 348.667 142.067 363.878C145.739 368.518 154.272 377.105 158.698 380.615C166.665 386.935 171.508 389.942 180.597 394.214C184.486 396.042 186.177 397.131 185.129 397.131C184.01 397.131 174.846 393.602 169.68 391.181C163.547 388.307 155.826 383.426 149.781 378.603C146 375.585 138.171 367.839 135.479 364.451C130.842 358.616 128.337 354.23 123.702 343.83C117.381 329.648 114.754 321.688 112.246 309.126C107.013 282.917 107.169 254.832 112.683 230.151C115.447 217.782 116.664 213.629 120.2 204.495C123.453 196.09 124.492 193.678 127.425 187.725C137.35 167.576 151.302 149.053 162.951 140.561C164.691 139.292 174.439 133.753 178.578 131.681C185.122 128.405 199.969 123.594 205.051 123.102C208.148 122.802 208.449 122.798 209.099 123.053ZM238.646 124.062C250.06 126.087 257.365 128.293 265.434 132.149C276.577 137.476 286.342 144.919 295.826 155.314C300.188 160.097 302.278 162.601 302.075 162.804C301.994 162.885 299.267 160.352 296.014 157.176C292.762 153.999 290.104 151.511 290.107 151.646C290.109 151.782 291.397 153.311 292.969 155.046C298.771 161.449 302.968 166.9 306.985 173.249C309.823 177.735 311.887 180.404 312.669 180.6C313.08 180.703 313.321 180.979 313.321 181.347C313.321 182.371 314.468 185.837 316.91 192.196C319.4 198.68 321.897 205.942 323.348 210.922C329.975 233.671 330.606 267.101 324.894 292.786C322.623 302.997 317.673 317.398 312.773 328.045C310.824 332.282 303.962 344.276 300.964 348.688C295.254 357.089 282.85 370.386 275.19 376.316C264.753 384.396 253.402 390.465 241.372 394.396C235.062 396.459 228.464 397.861 226.033 397.657L224.886 397.561L225.868 396.931C226.409 396.585 229.45 395.45 232.627 394.41C241.797 391.409 249.477 387.677 258.108 382.029C267.799 375.687 275.375 369.269 281.759 361.99C302.26 338.619 315.678 308.099 319.746 275.586C320.762 267.465 320.9 264.887 320.909 253.944C320.917 242.617 320.782 240.228 319.615 231.243C315.209 197.283 300.313 166.955 278.754 148.05C269.835 140.229 262.406 135.196 254.621 131.701C250.801 129.986 249.109 129.006 249.109 128.51C249.109 127.644 253.106 129.011 261.292 132.677C270.364 136.74 273.281 138.497 282.88 145.681C286.075 148.072 288.825 150.029 288.989 150.029C289.806 150.029 288.576 148.942 283.063 144.789C276.283 139.682 270.327 135.561 268.11 134.444C261.186 130.953 247.216 126.527 238.987 125.217C235.017 124.585 224.347 124.346 219.66 124.785C208.354 125.842 197.036 129.152 186.33 134.532C178.159 138.639 169.341 144.585 163.931 149.637C160.407 152.926 155.51 156.618 154.665 156.621C154.192 156.623 157.09 153.807 160.531 150.921C164.988 147.183 172.507 141.552 176.87 138.685C195.168 126.661 220.07 120.766 238.646 124.062ZM73.2709 127.884C76.749 131.851 81.5414 137.823 95.1853 155.189C109.246 173.086 113.903 179.172 114.898 180.95L115.562 182.135L114.891 182.39C114.523 182.53 111.709 182.786 108.638 182.958C102.669 183.292 99.8877 183.693 95.8455 184.8L93.3039 185.497L82.9864 175.451C69.7163 162.529 60.4151 153.664 58.6942 152.298C57.5525 151.391 57.2047 151.252 56.5443 151.442C54.3975 152.058 49.4847 154.962 41.0161 160.62C38.1719 162.521 35.7235 164.075 35.5756 164.075C35.4274 164.075 33.1995 163.286 30.6247 162.321C25.7122 160.481 22.6469 159.075 22.6469 158.662C22.6469 158.095 25.0844 155.441 27.8498 152.997C38.7788 143.339 51.1012 134.962 63.6394 128.665C67.3001 126.827 70.4146 125.415 70.867 125.388C70.9797 125.382 72.0612 126.505 73.2709 127.884ZM231.598 126.385C234.017 126.782 236.593 127.248 237.321 127.421C259.187 132.603 280.423 147.838 294.207 168.232C300.748 177.909 308.052 192.715 311.744 203.778C314.531 212.13 317.892 230.803 318.76 242.764C319.131 247.865 319.134 259.619 318.766 264.837C316.501 296.977 305.48 327.772 287.681 351.695C281.128 360.503 272.342 369.519 264.732 375.244C258.959 379.587 248.533 386.106 243.232 388.686C237.416 391.518 222.89 395.175 213.133 396.265C209.285 396.694 201.532 396.62 198.227 396.122C186.801 394.4 175.532 389.278 162.251 379.769C159.807 378.019 157.507 376.427 157.141 376.231C156.519 375.898 156.495 375.914 156.785 376.455C157.489 377.77 165.012 383.029 171.996 387.088C186.233 395.362 196.326 398.348 214.853 399.767L219.726 400.141L217.003 400.327C213.656 400.556 206.625 400.179 202.634 399.556C187.113 397.135 172.235 390.303 158.398 379.243C156.812 377.975 153.371 374.806 150.751 372.2C146.202 367.674 140.465 361.239 140.465 360.662C140.465 359.913 149.295 368.763 152.518 372.742C153.077 373.433 153.707 373.94 153.918 373.87C154.386 373.714 152.57 371.397 149.232 367.891C147.957 366.551 145.37 363.724 143.485 361.608C141.599 359.493 139.687 357.558 139.236 357.308C138.784 357.059 138.199 356.692 137.935 356.492C137.522 356.181 137.57 356.156 138.275 356.316C139.035 356.489 139.079 356.453 138.885 355.819C138.349 354.07 131.253 342.952 130.673 342.952C130.506 342.952 130.449 343.157 130.545 343.408C130.963 344.498 131.051 345.245 130.759 345.245C130.278 345.245 129.927 344.349 129.918 343.095C129.908 341.626 129.005 338.932 125.787 330.769C118.871 313.226 115.54 299.022 114.357 282.036C113.925 275.848 114.171 259.303 114.783 253.358C115.856 242.923 117.365 233.52 118.965 227.284C122.678 212.816 129.06 197.062 136.442 184.142C139.226 179.268 141.038 175.431 141.038 174.405C141.038 173.777 141.147 173.595 141.456 173.714C142.002 173.923 145.189 170.718 149.042 166.082C155.058 158.844 166.573 148.019 173.589 143.006C177.082 140.51 189.651 133.668 193.497 132.169C207.969 126.528 220.697 124.596 231.598 126.385ZM390.367 133.197C393.075 137.681 398.547 151.065 399.284 155.009C399.59 156.644 399.467 156.767 395.864 158.438C392.192 160.142 387.239 161.993 364.777 170.052C354.213 173.842 344.01 177.508 342.103 178.198L338.635 179.453L334.714 171.605C332.557 167.289 330.865 163.64 330.953 163.497C331.231 163.049 346.557 154.456 365.207 144.294C370.488 141.416 376.745 137.962 379.11 136.618C385.102 133.214 388.684 131.403 389.105 131.565C389.302 131.64 389.87 132.375 390.367 133.197ZM143.331 135.409C144.287 135.715 146.202 135.715 146.914 135.409C147.292 135.247 146.657 135.166 145.051 135.171C143.415 135.177 142.85 135.255 143.331 135.409ZM147.997 143.778C145.996 146.237 145.204 147.41 145.407 147.614C145.601 147.809 147.58 145.545 148.936 143.576C150.541 141.246 149.954 141.372 147.997 143.778ZM58.7037 154.02C61.7867 156.457 68.0574 162.4 89.3105 183.026C102.306 195.638 107.456 200.906 107.119 201.243C106.786 201.576 104.459 201.89 102.195 201.908C99.0738 201.932 94.4841 202.574 90.7114 203.512C86.9214 204.455 83.9602 204.551 81.699 203.805C78.2141 202.656 72.714 199.143 60.7189 190.407C53.2958 185.002 46.5897 180.415 46.1087 180.415C45.1461 180.415 39.3114 184.466 33.135 189.424C30.7631 191.327 28.6017 193.048 28.3323 193.247C27.9312 193.543 26.9365 193.475 22.8794 192.872C17.491 192.071 12.9168 191.152 12.5642 190.8C11.9335 190.169 16.263 185.131 23.8383 177.678C31.7464 169.899 36.7094 165.827 45.9026 159.577C50.3556 156.55 56.3857 152.896 56.9278 152.896C57.1222 152.896 57.9214 153.402 58.7037 154.02ZM136.82 157.411C135.058 159.473 134.158 160.763 134.158 161.226C134.158 161.921 136.642 159.118 138.301 156.551C139.192 155.172 138.28 155.701 136.82 157.411ZM153.651 158.708C153.651 159.294 152.798 160.349 152.325 160.349C151.864 160.349 152.006 159.411 152.574 158.701C152.948 158.234 153.651 158.239 153.651 158.708ZM400.344 160.564C403.025 166.231 407.624 183.206 407.143 185.664C406.92 186.806 406.146 187.194 403.046 187.721C400.579 188.14 394.281 189.286 368.36 194.03C357.89 195.946 348.068 197.613 347.241 197.614C346.05 197.615 344.977 196.309 343.773 193.393C342.221 189.634 340.288 183.497 340.197 182.04L340.124 180.861L346.574 178.397C357.415 174.256 398.833 158.988 399.37 158.935C399.477 158.924 399.915 159.657 400.344 160.564ZM151.071 162.221C151.071 162.984 150.359 163.478 149.908 163.027C149.618 162.737 150.342 161.495 150.801 161.495C150.949 161.495 151.071 161.822 151.071 162.221ZM148.491 164.728C148.491 165.313 147.638 166.369 147.165 166.369C146.704 166.369 146.846 165.431 147.415 164.72C147.788 164.253 148.491 164.259 148.491 164.728ZM304.546 166.01C304.927 166.602 305.334 167.407 305.451 167.8C305.645 168.45 305.62 168.478 305.172 168.106C304.37 167.44 303.218 164.935 303.714 164.935C303.79 164.935 304.165 165.419 304.546 166.01ZM127.767 167.947C128.975 169.154 128.92 169.664 127.306 172.245C126.714 173.191 125.6 175.167 124.829 176.637C122.917 180.284 121.795 181.562 120.505 181.562C119.958 181.562 119.153 181.377 118.717 181.152C116.959 180.243 109.218 171.343 109.218 170.231C109.218 170.01 109.489 169.684 109.819 169.507C110.302 169.249 114.767 168.371 121.832 167.144C122.226 167.076 123.496 167.002 124.655 166.981C126.703 166.943 126.79 166.97 127.767 167.947ZM145.911 168.281C145.911 168.885 145.092 169.809 144.557 169.809C144.124 169.809 144.286 168.846 144.835 168.16C145.247 167.645 145.911 167.719 145.911 168.281ZM307.298 169.662C307.493 169.896 307.57 170.301 307.47 170.561C307.305 170.993 307.241 170.99 306.722 170.52C306.41 170.237 306.154 169.833 306.154 169.621C306.154 169.105 306.857 169.13 307.298 169.662ZM50.6543 185.039C64.1399 194.061 100.268 220.138 100.319 220.887C100.341 221.213 99.5233 221.371 94.5988 221.99C91.9973 222.317 88.7079 222.851 87.2889 223.176C85.87 223.501 83.939 223.939 82.9982 224.15C77.6072 225.356 69.5664 225.404 66.076 224.252C64.9724 223.887 58.157 220.644 50.9309 217.045L37.7921 210.501L34.0179 213.757C31.9419 215.548 28.5994 218.515 26.5899 220.351C24.5804 222.187 22.581 223.789 22.1467 223.91C21.7124 224.031 17.9749 224.13 13.8413 224.13C4.77993 224.129 4.88771 224.166 6.46004 221.555C10.0267 215.632 24.1424 199.903 32.9254 192.064C39.4951 186.2 45.3656 181.919 46.3543 182.271C46.5438 182.338 48.4788 183.584 50.6543 185.039ZM117.758 184.691C118.434 184.822 119.059 185 119.145 185.086C119.232 185.173 118.791 186.705 118.166 188.491C113.723 201.174 113.665 201.297 112.301 200.955C111.233 200.687 107.642 198.247 104.775 195.841C101.63 193.201 96.4486 187.869 96.1671 186.982C95.8618 186.02 96.4927 185.718 99.9745 185.159C101.669 184.886 103.249 184.626 103.485 184.579C104.503 184.38 116.64 184.475 117.758 184.691ZM406.695 189.767C407.046 189.987 407.518 190.523 407.742 190.957C408.357 192.146 409.749 198.095 411.186 205.681C412.625 213.274 412.935 215.644 412.562 216.193C412.404 216.425 411.221 216.672 409.468 216.839C405.64 217.202 379.913 217.67 363.462 217.676L350.107 217.681L348.766 211.876C346.517 202.145 346.384 200.635 347.72 200.004C348.606 199.585 357.286 197.798 373.233 194.752C379.934 193.472 388.702 191.78 392.719 190.993C403.057 188.965 405.126 188.783 406.695 189.767ZM213.001 195.642C210.047 196.04 205.137 197.668 201.38 199.495C186.911 206.534 174.923 220.595 169.135 237.317C161.632 258.997 163.576 284.473 174.096 302.318C181.863 315.495 192.993 323.853 206.683 326.79C210.371 327.582 218.425 327.52 222.349 326.67C237.016 323.493 249.298 313.738 259.212 297.391C267.254 284.13 271.198 259.83 268 243.255C265.863 232.183 260.834 221.196 254.058 212.798C251.715 209.894 246.882 205.301 244.02 203.258C238.994 199.672 233.069 197.148 227.323 196.146C223.47 195.474 216.164 195.217 213.001 195.642ZM225.337 197.501C239.649 199.933 252.233 210.182 259.739 225.518C263.138 232.462 265.038 238.562 265.92 245.355C266.577 250.41 266.678 267.162 266.074 270.857C265.154 276.492 262.622 284.841 260.05 290.724C253.182 306.436 240.561 318.766 226.599 323.405C221.531 325.089 218.462 325.601 213.42 325.603C208.607 325.606 206.986 325.334 205.779 324.321C204.941 323.618 205.299 323.314 207.237 323.085C210.011 322.756 217.385 318.938 222.926 314.962C225.665 312.996 230.951 308.413 231.359 307.648C232.006 306.441 231.037 307.147 225.538 311.888C219.341 317.231 210.557 321.617 204.019 322.631C200.896 323.116 198.747 322.842 196.201 321.632C191.761 319.524 184.993 314.501 181.736 310.899C174.762 303.185 169.328 291.808 167.287 280.646C165.41 270.379 165.577 257.76 167.733 246.92C170.461 233.205 176.818 221.192 186.472 211.507C190.74 207.224 194.61 204.487 200.663 201.469C207.442 198.089 212.643 197.135 217.047 198.465C221.467 199.8 225.479 202.513 230.723 207.714C242.038 218.938 247.891 233.239 248.798 251.88C249.679 269.982 246.015 284.188 236.572 299.286C233.014 304.974 233.008 304.988 234.709 303.206C238.519 299.218 243.14 290.167 246.394 280.316C249.174 271.901 250.065 265.875 250.081 255.377C250.095 245.752 249.393 240.675 247.046 233.447C242.514 219.487 234.657 208.315 224.456 201.326C221.378 199.217 219.532 197.642 219.741 197.304C219.987 196.906 222.323 196.988 225.337 197.501ZM108.899 203.91C110.378 204.053 111.714 204.295 111.866 204.447C112.044 204.625 111.405 206.962 110.077 210.987C107.795 217.909 106.585 220.834 106.004 220.834C104.32 220.834 92.37 213.2 88.4611 209.628C87.0774 208.363 86.842 208.005 86.9157 207.275C86.9676 206.759 87.2895 206.202 87.7189 205.885C89.8611 204.303 101.623 203.207 108.899 203.91ZM44.7938 215.564C48.4581 217.395 58.4222 222.443 66.936 226.782C90.6712 238.878 95.3966 241.452 95.0116 242.075C94.9236 242.217 94.2284 242.334 93.4668 242.334C91.7428 242.334 88.4367 242.947 83.419 244.197C77.9114 245.57 72.9889 246.493 63.5976 247.915L55.3862 249.158L47.5807 246.616C43.2879 245.218 38.3771 243.663 36.6684 243.161L33.561 242.247L32.1887 243.346C31.4342 243.95 28.502 246.767 25.6726 249.605L20.5288 254.766L17.5028 255.283C11.3522 256.335 4.46632 257.267 3.46673 257.183C2.55114 257.106 2.44822 257.017 2.53594 256.38C2.93153 253.502 11.1673 241.465 20.0893 230.724C23.4395 226.691 37.387 212.234 37.9277 212.234C38.0397 212.234 41.1294 213.733 44.7938 215.564ZM411.643 220.251C412.511 223.476 414.512 240.427 414.512 244.561C414.512 248.417 414.646 248.345 408.696 247.688C402.574 247.012 371.959 242.229 361.618 240.332C352.962 238.744 353.137 238.824 352.624 236.268C352.288 234.595 351.737 226.504 351.735 223.209C351.734 221.531 351.828 221.091 352.235 220.877C353.977 219.958 372.27 219.34 402.963 219.163L411.337 219.114L411.643 220.251ZM103.199 224.005C105.835 224.429 105.97 224.622 105.566 227.394C105.005 231.243 102.661 240.96 102.177 241.445C102.107 241.514 100.277 240.716 98.1095 239.672C95.9421 238.627 93.5238 237.622 92.7355 237.438C88.8386 236.532 83.7088 234.253 81.9149 232.633C80.9649 231.774 80.8391 231.505 80.8391 230.327C80.8391 229.372 81.0454 228.69 81.5672 227.922C82.8015 226.106 86.7222 224.528 91.3022 224.005C94.2938 223.664 101.076 223.664 103.199 224.005ZM76.4523 226.651C77.883 227.13 78.2402 227.778 77.6299 228.786C76.7991 230.159 76.4064 230.234 74.7128 229.348C73.8695 228.907 72.8065 228.156 72.351 227.679C71.5343 226.824 71.5309 226.805 72.0959 226.381C72.726 225.909 74.581 226.023 76.4523 226.651ZM357.303 242.311C357.78 242.839 357.771 242.883 357.072 243.341C356.328 243.828 354.098 244.022 353.498 243.652C352.929 243.3 353.134 242.657 353.955 242.211C355.089 241.596 356.699 241.644 357.303 242.311ZM370.51 243.347C377.4 244.384 403.552 248.797 408.348 249.733L412.361 250.515L412.612 252.229C412.919 254.327 413.02 279.752 412.723 280.051C412.491 280.284 399.348 275.964 378.393 268.767C358.04 261.778 355.406 260.801 354.694 259.982C353.92 259.093 353.712 257.521 353.647 252.08C353.585 246.962 353.788 246.339 355.86 245.28C358.541 243.911 363.538 242.309 364.633 242.469C365.185 242.549 367.83 242.944 370.51 243.347ZM40.4199 245.962C50.0829 248.99 65.7802 254.164 76.3442 257.802C89.3483 262.281 90.4164 262.684 90.11 262.99C89.9767 263.124 87.8757 263.763 85.4411 264.412C79.951 265.874 72.3381 268.232 58.6317 272.712L48.0345 276.176L39.7121 275.021L31.3901 273.866L29.736 275.658C28.8265 276.643 26.956 278.785 25.5795 280.417C23.1721 283.271 22.968 283.437 20.2103 284.781C14.9168 287.36 6.30582 290.206 3.79381 290.206H2.509L2.69189 289.274C2.93383 288.04 6.65927 280.43 9.39201 275.586C14.8879 265.845 24.4348 252.827 30.5934 246.676C33.7616 243.511 32.8194 243.58 40.4199 245.962ZM98.1104 244.529L101.765 244.716L101.75 247.753C101.742 249.423 101.628 253.015 101.497 255.735C101.162 262.695 100.923 262.955 96.5613 261.097C92.6607 259.435 90.8352 258.934 87.6493 258.655C81.9573 258.155 78.9609 257.154 78.0845 255.46C77.2842 253.912 77.6726 249.533 78.7585 247.863C79.7159 246.39 87.3569 244.505 92.8788 244.379C93.746 244.359 96.1 244.427 98.1104 244.529ZM73.7972 248.633C74.5001 248.9 74.5322 249.011 74.5285 251.141C74.5228 254.389 74.4093 254.66 73.0536 254.66C71.0444 254.66 61.4768 251.268 60.913 250.355C60.3442 249.435 63.6879 248.859 72.2923 248.395C72.7157 248.372 73.3928 248.479 73.7972 248.633ZM76.2525 252.08C76.2525 252.869 76.1235 253.514 75.9658 253.514C75.8082 253.514 75.6792 252.869 75.6792 252.08C75.6792 251.292 75.8082 250.647 75.9658 250.647C76.1235 250.647 76.2525 251.292 76.2525 252.08ZM360.979 265.017C364.748 265.919 366.332 266.706 365.493 267.258C364.45 267.945 358.139 268.799 355.173 268.654L353.31 268.563V266.605C353.31 263.413 353.83 263.305 360.979 265.017ZM100.571 271.645C100.954 278.462 100.989 280.831 100.726 282.144C100.574 282.905 100.42 283.04 99.6976 283.04C99.2304 283.04 97.8071 282.582 96.5346 282.022C93.4321 280.658 91.2514 280.182 88.0804 280.177C86.1179 280.174 85.0412 280.322 83.9238 280.746C81.3227 281.735 78.9308 281.372 77.8466 279.824C77.4785 279.299 77.3991 278.203 77.3991 273.659C77.3991 270.62 77.4651 268.133 77.5456 268.133C77.6262 268.133 79.2065 267.671 81.0572 267.106C84.7365 265.983 87.7183 265.682 96.0524 265.596L100.229 265.553L100.571 271.645ZM371.8 268.719C379.95 270.667 402.514 278.121 407.991 280.676L410.786 281.98V283.102C410.786 287.554 409.322 305.897 408.756 308.536C408.294 310.691 408.005 310.952 406.625 310.464C404.7 309.785 396.59 305.633 384.27 299.02C366.139 289.288 357.559 284.669 354.783 283.147L352.242 281.755L352.375 277.309C352.448 274.864 352.648 272.521 352.82 272.102C353.047 271.549 353.569 271.177 354.732 270.742C357.211 269.815 362.998 268.775 369.077 268.166C369.234 268.15 370.46 268.399 371.8 268.719ZM73.2959 270.898C73.938 271.878 74.2255 278.28 73.674 279.31C73.3363 279.941 73.2225 279.961 70.8186 279.79C66.0522 279.452 53.9225 277.14 53.1961 276.431C52.3845 275.639 68.1265 270.181 71.301 270.153C72.6119 270.142 72.8616 270.235 73.2959 270.898ZM75.619 273.579C75.4977 276.295 74.9751 275.883 74.8923 273.007C74.8275 270.766 74.8573 270.616 75.2621 271.142C75.5783 271.553 75.6786 272.239 75.619 273.579ZM45.2931 277.43C70.0047 281.41 73.5676 281.996 78.6891 282.928C85.7842 284.218 86.4235 284.392 85.9961 284.906C85.8135 285.126 84.9334 285.517 84.0399 285.774C79.8681 286.977 61.0136 295.697 59.0528 297.33C57.8503 298.332 58.7934 298.028 62.8078 296.121C67.151 294.058 73.7058 291.353 74.3628 291.353C75.0511 291.353 75.3062 292.142 75.6511 295.339C75.8282 296.979 76.1714 299.087 76.4142 300.023C76.6567 300.959 76.8164 302.324 76.7688 303.057C76.6839 304.366 76.663 304.392 75.5358 304.591C74.108 304.842 48.381 304.893 47.736 304.645C47.4029 304.517 48.0454 304.031 49.9342 302.981C53.2009 301.166 53.8929 300.729 53.8929 300.484C53.8929 300.122 52.5906 300.605 48.7331 302.399C46.6046 303.389 44.3471 304.353 43.7165 304.541C43.0858 304.73 40.3024 304.951 37.5309 305.032L32.4923 305.181L30.6915 308.018C27.6446 312.817 25.9255 314.044 12.9483 320.679C8.40016 323.005 6.16593 324.005 5.96698 323.806C3.73676 321.576 22.8083 285.223 30.3868 277.259L32.0586 275.502L33.7309 275.67C34.6508 275.762 39.8537 276.554 45.2931 277.43ZM100.315 286.901C100.778 287.14 101.273 287.728 101.461 288.263C101.897 289.503 102.657 296.528 102.719 299.906C102.765 302.419 102.726 302.617 102.077 303.143C101.238 303.822 100.567 303.714 97.3221 302.379C92.2416 300.287 89.4108 300.426 84.3931 303.011C80.2973 305.12 80.4802 305.311 79.3524 297.763C78.8846 294.632 78.4902 291.716 78.4758 291.285C78.3827 288.434 84.768 286.605 95.1148 286.517C98.4698 286.488 99.6919 286.578 100.315 286.901ZM357.466 287.633C360.581 288.686 368.308 291.925 369.38 292.627C369.775 292.886 370.022 293.221 369.929 293.372C369.747 293.666 351.762 293.761 350.689 293.473C350.157 293.331 350.092 293.149 350.203 292.116C350.49 289.439 350.933 287.184 351.244 286.809C351.737 286.214 354.254 286.548 357.466 287.633ZM77.1125 294.793C77.1125 295.423 76.9835 295.939 76.8258 295.939C76.6681 295.939 76.5391 295.423 76.5391 294.793C76.5391 294.162 76.6681 293.646 76.8258 293.646C76.9835 293.646 77.1125 294.162 77.1125 294.793ZM55.8279 298.632C55.0938 299.189 55.1852 299.748 55.9712 299.507C56.7461 299.269 57.3329 298.829 57.3329 298.484C57.3329 298.107 56.3986 298.198 55.8279 298.632ZM94.4053 303.2C95.0084 303.384 95.4998 303.665 95.4975 303.823C95.4874 304.476 89.5378 305.321 87.307 304.987C85.6108 304.732 85.5025 303.946 87.0739 303.294C88.3688 302.758 92.7776 302.7 94.4053 303.2ZM349.686 305.844C351.194 306.977 353.499 309.412 353.063 309.412C352.98 309.412 351.966 308.981 350.81 308.454C348.649 307.47 347.147 306.09 347.147 305.09C347.147 304.234 347.802 304.428 349.686 305.844ZM84.279 306.972C84.279 307.049 83.3436 307.582 82.2007 308.157C77.9899 310.273 65.5532 318.556 62.9563 320.974L61.7761 322.073L62.9228 321.423C63.5534 321.065 66.4166 319.189 69.2852 317.254C74.8573 313.496 77.7784 311.856 78.4452 312.112C79.0964 312.362 79.6314 313.944 81.4456 320.984C83.3803 328.492 83.3941 328.331 80.7728 328.893C76.491 329.811 52.7062 333.853 49.4153 334.221C46.158 334.586 46.6378 333.734 51.8863 329.833C57.8827 325.377 59.2423 324.316 59.9395 323.551C61.4488 321.894 59.113 323.355 51.9044 328.574C47.2751 331.926 43.5141 334.292 41.1546 335.335C39.07 336.257 37.307 337.493 34.8463 339.757C29.0225 345.116 13.9648 356.189 13.1693 355.697C12.594 355.341 13.051 352.012 14.1884 348.271C17.5779 337.123 25.4614 319.465 30.9936 310.631L33.372 306.832H58.8255C72.8249 306.832 84.279 306.895 84.279 306.972ZM104.376 308.839C105.6 313.233 106.925 319.77 106.925 321.415C106.925 323.009 106.856 323.216 106.231 323.501C105.494 323.837 104.836 323.667 99.472 321.758C95.406 320.311 92.0716 320.698 88.8856 322.987C87.2164 324.186 85.7129 324.988 85.5116 324.787C85.2645 324.54 83.474 318.122 82.8549 315.265C82.1749 312.126 82.1087 310.192 82.6657 309.73C83.2926 309.209 86.8647 308.078 89.029 307.715C92.1169 307.196 96.411 306.901 100.303 306.94L103.858 306.976L104.376 308.839ZM352.524 310.409C360.239 314.118 370.653 320.834 370.653 322.1C370.653 322.548 366.092 322.123 360.333 321.138C357.574 320.666 353.096 319.904 350.381 319.445C344.82 318.505 343.994 318.15 343.994 316.703C343.994 315.388 345.475 311.091 346.421 309.661C347.14 308.575 347.275 308.498 348.2 308.648C348.75 308.738 350.696 309.53 352.524 310.409ZM354.226 321.178C357.979 321.809 364.254 322.967 368.171 323.751C375.247 325.168 375.303 325.185 377.286 326.515C381.397 329.274 392.654 338.594 395.632 341.706L396.962 343.095L396.695 345.245C395.795 352.481 390.624 369.324 388.993 370.332C388.28 370.772 384.727 367.312 366.905 348.825C352.553 333.936 348.253 329.38 345.268 325.895C341.896 321.96 341.492 321.128 342.474 320.146C343.128 319.492 345.386 319.69 354.226 321.178ZM99.1853 323.059C100.743 323.557 101.92 324.41 101.651 324.845C101.386 325.274 100.075 325.602 95.2337 326.449C90.2851 327.316 85.999 327.688 85.999 327.251C85.999 326.765 88.6035 324.988 90.9516 323.873C94.2456 322.309 96.2267 322.113 99.1853 323.059ZM342.75 325.993C344.388 327.293 349.44 332.532 349.44 332.929C349.44 333.081 349.34 333.205 349.217 333.205C348.551 333.205 339.912 328.343 339.556 327.768C339.23 327.24 340.528 324.892 341.146 324.892C341.265 324.892 341.986 325.388 342.75 325.993ZM108.785 327.183C108.998 327.359 109.453 328.432 109.796 329.566C110.139 330.701 111.245 333.654 112.255 336.13C113.265 338.606 114.092 340.767 114.092 340.932C114.092 341.46 113.068 341.259 109.792 340.085C106.267 338.822 105.686 338.743 104.461 339.353C104.003 339.582 102.726 339.859 101.622 339.97C98.8617 340.248 96.8823 340.984 94.6963 342.544C93.6755 343.272 92.7971 343.823 92.7447 343.768C92.3439 343.347 88.255 333.503 88.1137 332.619C87.8674 331.079 88.48 330.237 90.3614 329.534C92.1318 328.871 101.479 326.966 103.772 326.8C106.044 326.636 108.337 326.811 108.785 327.183ZM342.337 330.731C345.149 331.992 352.083 336.869 356.974 341.026C362.442 345.673 367.5 350.757 367.5 351.606C367.5 352.1 365.742 351.634 357.897 349.058C348.253 345.892 335.154 341.151 334.322 340.525C334.191 340.427 336.877 333.952 337.855 332.01C338.788 330.158 338.895 330.052 339.833 330.052C340.378 330.052 341.505 330.357 342.337 330.731ZM83.419 330.611C83.419 330.761 82.2904 331.817 80.9107 332.957C76.2777 336.787 73.8603 339.013 52.3175 359.278C26.0066 384.029 23.3263 386.439 22.7478 385.861C22.0722 385.185 26.1499 367.64 28.9899 359.005C30.9744 352.97 37.1239 339.03 38.1925 338.143C38.6896 337.73 62.2055 333.358 77.6858 330.8C80.5733 330.323 83.419 330.229 83.419 330.611ZM86.1119 334.301C86.6391 335.354 88.0004 338.524 89.137 341.346L91.2036 346.477L89.1029 348.611C86.2529 351.506 84.7566 352.467 80.5209 354.12C74.5451 356.452 50.8956 363.878 49.4428 363.878C48.5401 363.878 49.2106 363.008 52.3215 360.141C53.5799 358.982 58.415 354.466 63.0661 350.106C76.2723 337.726 80.0493 334.465 82.9569 332.935C83.8728 332.454 84.7417 332.133 84.8876 332.224C85.0338 332.314 85.5847 333.249 86.1119 334.301ZM109.357 340.775C110.463 341.287 111.562 341.944 111.798 342.233C112.207 342.733 112.166 342.749 110.968 342.558C109.281 342.29 105.949 340.601 105.822 339.949C105.738 339.517 105.851 339.468 106.534 339.639C106.981 339.751 108.251 340.262 109.357 340.775ZM106.021 342.238C108.086 342.891 109.244 343.595 108.869 343.97C108.504 344.335 102.583 346.599 98.0387 348.11C92.7673 349.864 89.8459 350.621 89.5378 350.313C88.986 349.761 93.961 344.546 96.4059 343.113C99.8871 341.073 101.785 340.9 106.021 342.238ZM342.322 344.641C345.685 345.885 352.982 348.527 358.537 350.511C364.092 352.495 369.381 354.498 370.29 354.962C373.081 356.386 375.211 358.464 384.592 368.913L386.635 371.188L384.863 376.778C383.888 379.852 382.471 383.916 381.714 385.807C380.105 389.828 376.951 396.386 376.129 397.417L375.559 398.134L374.512 397.131C371.347 394.098 335.107 344.094 335.107 342.76C335.107 342.081 336.104 342.341 342.322 344.641ZM338.484 350.774C340.174 353.105 341.873 355.546 342.26 356.197L342.963 357.382L342.332 357.217C341.984 357.126 341.7 357.143 341.7 357.254C341.7 357.366 343.068 358.934 344.739 360.739C348.363 364.654 353.67 371.189 356.739 375.514C359.03 378.743 360.532 381.364 360.091 381.364C358.908 381.364 335.429 368.866 329.635 365.151C325.997 362.82 324.211 360.822 324.217 359.091C324.225 356.764 328.783 350.118 330.37 350.118C331.14 350.118 334.398 352.032 336.793 353.892C339.478 355.976 339.755 356.114 338.117 354.551C335.78 352.321 332.765 349.783 331.719 349.167C330.782 348.613 330.749 348.536 330.878 347.188C330.984 346.087 331.221 345.569 331.985 344.776L332.957 343.766L334.184 345.15C334.859 345.912 336.794 348.442 338.484 350.774ZM116.028 345.317C116.186 345.514 116.412 345.997 116.53 346.392C116.649 346.786 117.622 349.108 118.692 351.552C121.022 356.872 121.211 357.498 120.555 357.749C120.292 357.85 118.862 357.64 117.377 357.282C113.791 356.418 110.496 356.562 107.784 357.7C104.186 359.211 102.026 359.895 101.441 359.71C100.373 359.37 96.6395 352.813 96.6131 351.228C96.604 350.669 97.9126 350.079 103.199 348.258C111.704 345.328 115.366 344.488 116.028 345.317ZM135.145 351.615C135.676 352.373 135.731 353.079 135.246 352.917C134.815 352.774 134.057 350.978 134.427 350.978C134.577 350.978 134.9 351.265 135.145 351.615ZM300.94 352.992C301.711 353.462 301.852 353.691 301.691 354.209C301.398 355.149 299.136 358.347 295.662 362.731C278.011 385.004 259.121 398.876 235.923 406.6C224.572 410.38 222.036 410.837 208.91 411.467C198.733 411.956 196.198 411.51 186.725 407.565C184.264 406.541 180.973 405.061 179.411 404.278C171.037 400.075 159.619 392.322 154.165 387.136C151.784 384.872 149.064 381.623 149.064 381.044C149.064 380.899 151.805 382.622 155.156 384.873C164.738 391.311 173.176 395.261 183.464 398.125C193.621 400.953 200.91 401.631 216.073 401.162C230.321 400.72 232.083 400.489 240.509 397.957C257.07 392.982 272.471 383.639 286.049 370.333C293.457 363.073 296.695 359.019 296.695 357.004C296.695 356.409 296.868 355.778 297.079 355.602C297.627 355.148 297.85 355.503 297.536 356.33C296.855 358.123 297.751 357.769 299.121 355.704C300.204 354.072 300.401 353.389 299.705 353.671C299.468 353.767 299.081 353.923 298.845 354.019C298.266 354.253 298.293 353.594 298.889 352.936C299.49 352.271 299.771 352.279 300.94 352.992ZM82.9518 358.5C80.7737 360.819 78.1596 364.161 78.3637 364.365C78.4644 364.465 79.1962 363.849 79.9903 362.994C81.8748 360.967 84.6915 357.315 84.51 357.134C84.4321 357.056 83.7309 357.67 82.9518 358.5ZM116.339 358.011C118.315 358.46 120.112 359.341 120.112 359.86C120.112 360.612 117.548 359.781 114.952 358.189C113.754 357.454 113.844 357.443 116.339 358.011ZM293.989 360.442C292.572 362.515 291.916 363.208 291.636 362.929C291.398 362.69 292.703 360.546 294.005 359.035C295.579 357.208 295.569 358.129 293.989 360.442ZM115.769 360.257C116.928 360.651 117.944 361.041 118.026 361.124C118.685 361.782 116.976 362.847 107.355 367.771C99.9788 371.546 95.7904 373.478 95.5367 373.225C95.2994 372.987 97.0575 370.202 99.5067 366.935C103.549 361.544 104.958 360.281 107.709 359.584C109.499 359.131 113.423 359.458 115.769 360.257ZM323.507 362.913C325.74 365.84 333.137 379.13 332.749 379.518C332.505 379.762 328.303 375.908 323.092 370.662L318.674 366.214L319.2 365.411C319.867 364.392 322.217 361.871 322.499 361.871C322.617 361.871 323.07 362.34 323.507 362.913ZM124.917 363.128C126.725 365.187 131.358 373.367 130.949 373.776C130.854 373.871 129.57 373.614 128.096 373.206C123.042 371.806 119.011 371.946 116.958 373.591C114.211 375.794 112.167 375.925 110.265 374.02C109.311 373.065 108.358 371.309 108.358 370.507C108.358 368.543 119.598 362.344 123.45 362.183C123.812 362.169 124.416 362.557 124.917 363.128ZM336.397 370.186C340.181 372.22 347.856 376.392 353.453 379.457C364.916 385.734 363.558 384.632 368.432 391.611C369.89 393.7 371.499 396.187 372.007 397.139L372.931 398.87L372.332 400.509C372.002 401.41 370.667 404.358 369.365 407.061C364.79 416.553 360.703 422.643 358.907 422.643C358.282 422.643 355.838 418.362 342.514 393.931C329.815 370.645 328.069 367.283 328.325 366.617C328.578 365.958 328.31 365.84 336.397 370.186ZM287.808 368.134C287.808 369.271 271.34 381.944 263.814 386.599C252.115 393.836 232.462 400.409 225.316 399.475C223.741 399.269 223.743 399.269 226.893 398.903C235.574 397.893 245.582 394.681 255.606 389.688C264.315 385.35 270.886 381.012 279.035 374.221C285.859 368.535 287.808 367.183 287.808 368.134ZM319.817 369.001C323.127 371.651 333.269 382.525 336.469 386.857C340.105 391.78 349.676 409.316 349.062 409.931C348.892 410.101 340.959 404.397 332.097 397.731C319.329 388.125 316.973 386.049 315.459 383.06C314.493 381.154 312.174 375.651 312.174 375.264C312.174 375.109 313.072 373.726 314.168 372.19C316.015 369.602 317.617 367.891 318.19 367.891C318.322 367.891 319.054 368.391 319.817 369.001ZM128.963 375.126C130.379 375.855 130.811 376.491 129.889 376.491C129.531 376.491 129.134 376.811 128.879 377.305C128.048 378.911 116.709 387.347 108.199 392.69C105.49 394.39 105.205 394.497 105.205 393.817C105.205 393.185 109.694 384.406 111.931 380.663C114.213 376.844 114.932 376.063 116.54 375.658C118.295 375.216 122.47 375.277 124.841 375.779C127.712 376.387 127.863 376.333 126.588 375.149L125.469 374.108L126.576 374.288C127.184 374.387 128.259 374.764 128.963 375.126ZM92.5922 377.749C92.5922 377.968 92.0099 378.967 91.2982 379.97C88.6018 383.771 83.5214 391.627 70.4697 412.18C63.0607 423.847 56.4752 434.103 55.8354 434.97C54.3161 437.029 52.7214 438.696 52.271 438.696C50.7466 438.696 51.4495 424.641 53.6175 411.78C54.589 406.016 55.5134 402.013 56.9046 397.544L57.8916 394.374L74.8496 385.863C84.1764 381.181 91.9839 377.351 92.1997 377.351C92.4156 377.351 92.5922 377.53 92.5922 377.749ZM137.755 380.835C140.697 383.865 143.044 386.656 143.044 387.123C143.044 387.54 141.118 387.426 138.022 386.825C134.249 386.092 131.585 385.832 130.31 386.071C129.485 386.226 129.176 386.477 128.779 387.318C128.189 388.567 127.274 389.094 125.686 389.1C124.308 389.105 122.185 387.88 121.573 386.727C121.068 385.775 121.209 385.59 124.132 383.365C129.199 379.508 133.488 377.126 134.445 377.638C134.681 377.764 136.171 379.203 137.755 380.835ZM312.005 380.168C314.363 384.868 320.201 399.122 320.201 400.18C320.201 400.611 318.743 399.002 314.188 393.547C306.757 384.649 306.072 383.704 306.251 382.598C306.522 380.929 309.742 377.054 310.48 377.51C310.632 377.604 311.319 378.8 312.005 380.168ZM306.91 386.309C309.421 388.877 311.316 391.143 314.653 395.566C319.024 401.359 320.715 404.097 323.635 410.114C328.197 419.512 333.961 433.555 333.961 435.271V435.869L333.172 435.301C331.532 434.12 321.026 423.877 312.396 415.047L303.431 405.874L301.156 397.48L298.882 389.086L300.44 387.486C302.14 385.739 304.048 384.231 304.556 384.231C304.734 384.231 305.793 385.166 306.91 386.309ZM327.941 395.685C332.592 399.257 337.752 403.201 339.407 404.449C349.495 412.057 354.991 417.807 356.221 422.038C356.64 423.476 356.639 423.732 356.219 425.061C355.139 428.48 348.916 437.566 344.204 442.602C342.202 444.742 340.908 445.57 340.52 444.958C339.57 443.463 331.784 424.946 325.231 408.597C317.807 390.077 317.116 387.942 318.835 388.848C319.192 389.037 323.29 392.113 327.941 395.685ZM141.431 389.377C141.845 389.534 142.184 389.783 142.184 389.93C142.184 390.436 137.373 395.576 131.548 401.29C122.444 410.222 117.226 414.671 117.018 413.678C116.767 412.477 124.058 394.915 126.181 391.607C127.27 389.909 128.23 389.391 130.841 389.089C133.356 388.797 140.412 388.989 141.431 389.377ZM148.107 392.227C148.87 392.841 150.72 394.588 152.218 396.109L154.941 398.875L153.078 398.705C149.369 398.367 143.026 398.074 142.327 398.207C140.296 398.595 142.508 399.389 146.576 399.731C151.218 400.122 155.371 401.386 155.371 402.408C155.371 403.238 151.38 408.261 141.229 420.207C134.247 428.424 132.48 430.383 132.053 430.383C131.559 430.383 132.115 427.986 134.444 420.063C137.4 410.009 138.745 404.674 138.745 402.998C138.745 401.905 138.567 401.454 137.741 400.446C137.189 399.772 136.738 399.085 136.738 398.919C136.738 398.358 138.927 395.852 140.554 394.551C142.195 393.237 145.784 391.123 146.387 391.115C146.57 391.113 147.344 391.613 148.107 392.227ZM297.617 392.278C298.567 394.173 301.63 403.926 303.168 409.952C304.771 416.233 305.117 418.743 304.286 418.053C304.047 417.854 302.937 416.218 301.819 414.417C300.702 412.616 299.718 411.211 299.633 411.296C299.548 411.381 301.168 414.84 303.232 418.982C305.297 423.124 307.441 427.759 307.998 429.281C310.851 437.082 315.328 455.019 315.328 458.647C315.328 460.02 315.321 460.03 314.783 459.471C313.822 458.473 293.423 431.199 291.553 428.411C289.292 425.04 288.199 422.719 287.664 420.152C286.028 412.307 285.046 401.218 285.855 399.738C286.489 398.578 287.646 397.888 288.572 398.118C289.754 398.411 291.952 400.817 294.613 404.733C297.35 408.759 298.673 410.377 298.69 409.72C298.696 409.471 297.646 407.73 296.356 405.851C292.245 399.862 290.388 397.023 290.388 396.725C290.388 395.922 296.116 391.033 296.838 391.221C296.996 391.262 297.346 391.738 297.617 392.278ZM101.194 400.92C97.3728 409.825 72.4164 460.887 71.5223 461.63C70.1257 462.789 69.6286 459.646 69.4546 448.557C69.2442 435.163 69.9643 425.125 71.3664 421.907C72.3055 419.751 74.3743 418.083 88.3407 408.221C97.57 401.705 101.509 399.072 101.718 399.281C101.787 399.35 101.551 400.087 101.194 400.92ZM162.299 403.479C163.956 404.483 168.271 407.717 168.271 407.955C168.271 408.251 155.522 407.262 154.891 406.917C154.375 406.636 156.318 404.198 157.894 403.149C159.486 402.09 160.078 402.134 162.299 403.479ZM282.58 403.795C283.483 404.758 284.196 407.807 285.783 417.484C287.049 425.206 287.424 427.825 287.948 432.592C288.021 433.256 287.962 433.871 287.817 433.961C287.672 434.05 286.045 431.121 284.202 427.452C282.359 423.782 280.305 419.813 279.637 418.63C277.381 414.63 274.415 409.03 274.215 408.392C274.046 407.851 274.303 407.545 275.967 406.311C277.905 404.875 281.001 403.15 281.641 403.15C281.825 403.15 282.247 403.441 282.58 403.795ZM163.667 409.769C168.116 410.331 169.75 410.857 169.929 411.785C170.074 412.537 156.668 433.341 150.672 441.67L148.634 444.5L148.547 443.494C148.499 442.941 148.786 441.135 149.184 439.482C150.847 432.581 153.386 415.689 153.412 411.357L153.427 408.814L156.334 409.012C157.933 409.12 161.233 409.461 163.667 409.769ZM272.775 409.638C274.603 410.835 280.225 421.104 285.001 431.968C289.059 441.197 290.269 446.096 292.825 463.636C293.388 467.499 294.176 472.695 294.576 475.183C294.976 477.67 295.254 479.853 295.195 480.032C294.873 480.998 291.29 475.148 278.805 453.267L270.843 439.314L270.45 431.051C270.234 426.506 270.052 419.959 270.046 416.503C270.037 411.048 270.098 410.15 270.51 409.695C271.096 409.046 271.844 409.027 272.775 409.638ZM177.342 412.233C178.626 412.779 179.965 413.532 180.316 413.907L180.956 414.588L180.168 414.786C179.734 414.895 178.131 414.832 176.605 414.648C171.707 414.054 171.356 413.801 172.88 411.955C173.9 410.719 173.757 410.71 177.342 412.233ZM267.272 412.825C267.495 413.259 267.818 414.323 267.99 415.19C268.868 419.598 269.947 447.917 269.22 447.468C268.975 447.316 268.525 446.17 265.493 437.98C264.559 435.457 262.406 430.168 260.708 426.227C257.113 417.884 256.743 416.281 258.179 415.27C259.321 414.466 265.343 412.107 266.373 412.06C266.645 412.047 267.049 412.392 267.272 412.825ZM178.703 417.045C183.925 417.774 185.255 418.152 185.409 418.953C185.598 419.934 168.014 454.118 167.177 454.397C166.717 454.551 166.74 453.107 167.252 449.659C168.283 442.727 168.984 434.34 169.409 423.844C169.565 420.011 169.766 416.754 169.858 416.606C170.143 416.145 173.418 416.308 178.703 417.045ZM251.115 424.722C251.114 434.549 249.941 455.896 249.402 455.896C249.292 455.896 248.652 453.929 247.98 451.524C245.753 443.554 244.279 438.624 242.109 431.897C239.68 424.368 239.098 421.98 239.527 421.301C240.233 420.181 244.876 418.974 248.607 418.939L251.116 418.917L251.115 424.722ZM110.835 429.953C109.19 434.841 105.519 445.354 102.676 453.316C94.331 476.692 93.0993 479.915 92.3293 480.391C91.8959 480.659 91.1955 479.427 90.4585 477.101C88.822 471.935 88.0423 466.014 87.7224 456.326C87.3488 445.011 87.6215 443.753 91.2818 439.892C94.7003 436.288 108.352 423.992 111.918 421.306C113.411 420.182 113.673 420.071 113.743 420.53C113.788 420.825 112.479 425.066 110.835 429.953ZM194.43 421.34C197.202 421.726 199.935 422.237 200.505 422.475C201.74 422.991 201.79 422.613 199.644 428.95C197.771 434.481 188.957 457.554 187.994 459.45L187.283 460.849L187.093 457.324C186.855 452.902 186.842 421.704 187.078 421.09C187.317 420.467 188.445 420.505 194.43 421.34ZM208.26 422.636C209.206 422.788 211.52 423.111 213.403 423.356C215.658 423.649 217.003 423.961 217.345 424.27C218.409 425.233 218.224 426.156 212.996 445.988C208.611 462.622 208.205 463.731 207.576 460.799C207.41 460.024 207.009 456.315 206.685 452.555C206.362 448.795 205.769 443.011 205.369 439.7C204.236 430.331 203.823 426.353 203.82 424.742C203.815 422.359 204.499 422.035 208.26 422.636ZM233.142 422.617C233.898 422.742 234.633 422.96 234.773 423.102C234.924 423.253 234.857 424.839 234.613 426.943C233.595 435.694 229.322 461.177 228.783 461.717C228.541 461.959 228.303 460.777 226.464 450.234C225.653 445.584 224.759 441.358 222.305 430.583C221.078 425.192 221.043 423.29 222.163 422.726C222.976 422.317 230.839 422.238 233.142 422.617ZM291.004 429.452C293.665 432.261 314.108 459.964 317.862 465.85L318.817 467.347L318.222 468.184C316.116 471.141 307.787 477.16 303.069 479.133C299.187 480.756 297.859 480.822 297.136 479.425C296.37 477.943 289.528 433.062 289.528 429.518C289.528 428.89 289.631 428.377 289.757 428.377C289.882 428.377 290.443 428.861 291.004 429.452ZM129.048 440.486C128.148 444.89 118.042 486.694 116.764 491.299C115.483 495.915 115.086 496.783 114.48 496.281C112.816 494.9 109.638 485.052 108.08 476.45C107.486 473.171 106.956 467.299 106.935 463.775L106.925 462.052L115.255 452.309C125.719 440.069 128.967 436.544 129.389 436.966C129.617 437.194 129.523 438.163 129.048 440.486ZM274.406 447.601C276.886 451.737 286.196 468.068 290.164 475.246C293.891 481.986 295.261 484.693 295.261 485.316C295.261 486.132 293.174 487.838 290.459 489.24C285.354 491.877 278.592 493.604 275.759 492.995C273.858 492.586 273.528 491.909 273.189 487.715C272.634 480.838 272.011 465.704 271.84 454.926C271.697 445.9 271.733 444.088 272.054 444.195C272.266 444.265 273.324 445.798 274.406 447.601ZM147.514 452.707C147.186 455.058 145.114 470.661 143.759 480.979C141.635 497.155 140.178 507.007 139.851 507.4C139.031 508.388 136.177 504.796 133.725 499.69C130.784 493.562 129.053 487.857 128.311 481.839L127.89 478.419L133.497 469.952C139.661 460.647 144.043 454.28 145.917 451.91C146.978 450.567 147.17 450.435 147.417 450.875C147.572 451.153 147.616 451.977 147.514 452.707ZM252.989 457.177C254.073 459.028 255.817 463.047 263.006 480.262C270.267 497.65 271.123 499.904 270.713 500.554C270.063 501.584 265.667 502.545 260.432 502.801C254.372 503.097 250.5 502.187 249.488 500.231C249.068 499.418 249.056 498.587 249.36 491.588C250.124 474.021 251.176 456.781 251.518 456.227C251.878 455.645 252.22 455.865 252.989 457.177ZM167.299 468.058C167.055 476.979 166.06 503.478 165.824 507.352C165.563 511.623 165.128 515.339 164.855 515.612C164.499 515.968 162.838 514.392 160.434 511.418C157.285 507.521 155.573 504.817 153.299 500.151C151.415 496.284 151.249 495.793 151.13 493.737C151.021 491.849 151.123 491.144 151.798 489.111C152.907 485.769 163.005 465.984 166.105 461.08C167.394 459.04 167.525 459.803 167.299 468.058ZM233.169 469.446C237.601 483.172 244.809 508.42 244.809 510.214C244.809 511.406 244.19 511.604 241.15 511.383C235.012 510.936 228.428 508.723 225.579 506.149C224.577 505.244 224.456 504.991 224.456 503.79C224.456 500.967 226.359 487.389 228.758 473.096C229.937 466.07 230.614 463.224 231.044 463.489C231.183 463.575 232.14 466.256 233.169 469.446ZM188.159 467.004C188.384 467.767 189.139 475.686 189.613 482.269C190.713 497.527 191.831 516.413 191.672 517.047C191.422 518.045 190.765 518.188 189.336 517.556C184.984 515.631 178.642 508.991 175.839 503.427C174.604 500.973 174.606 500.117 175.856 495.84C177.664 489.655 185.204 469.85 186.671 467.434C187.293 466.41 187.93 466.226 188.159 467.004ZM211.262 474.721C212.045 478.636 213.715 487.644 214.973 494.739C216.231 501.833 217.589 509.315 217.991 511.365C218.924 516.131 218.922 516.32 217.935 516.569C216.814 516.852 212.99 515.996 210.808 514.975C206.708 513.057 201.269 508.372 199.809 505.503C198.74 503.401 199.061 501.856 204.947 480.777C208.347 468.602 209.121 466.319 209.572 467.125C209.719 467.389 210.48 470.807 211.262 474.721Z" fill="black"/>
</svg>
