<svg xmlns="http://www.w3.org/2000/svg" version="1.1" xmlns:xlink="http://www.w3.org/1999/xlink" xmlns:svgjs="http://svgjs.dev/svgjs" width="100%" height="100%" viewBox="0 0 1000 600"><rect width="1000" height="600" x="0" y="0" fill="#ffffff"/><g><circle r="166.66666666666666" cx="359.4409739176432" cy="381.6631986129074" fill="#000000E5" transform="matrix(0.6484265339235615,0,0,0.6484265339235614,0,52.51942479801126)"/><path d="M363.3944094056041 456.66317810238905L363.3944094056041 456.66317810238905Q336.7880240519271 456.66317810238905 323.80226113527345 437.35767723296397Q310.8164982186198 418.023319112613 310.8164982186198 381.6631829459828L310.8164982186198 381.6631829459828Q310.8164982186198 345.3030467793526 323.80226113527345 325.99754590992757Q336.7880240519271 306.66318778957657 363.3944094056041 306.66318778957657L363.3944094056041 306.66318778957657Q373.35016097503853 306.66318778957657 380.6221882083646 309.3757693766109Q387.8942154416906 312.0594937127193 393.0885206083521 316.6477966099369Q398.2828257750135 321.20724225622865 401.8322676388989 326.9209779395562Q405.3528522518583 332.63471362288385 408.06543383889266 338.463878309915L408.06543383889266 338.463878309915L393.0885206083521 345.3030467793526Q391.21279929816876 340.5416003765796 388.73107571854166 336.2707272395469Q386.2493521389145 331.99985410251406 382.8153392787327 328.7966992497395Q379.381326418551 325.5646871460391 374.70645176855567 323.6889658358558Q370.0315771185604 321.8421017765984 363.3944094056041 321.8421017765984L363.3944094056041 321.8421017765984Q346.1377733519177 321.8421017765984 337.71145608155575 334.9144364460297Q329.31399606211977 348.0156283663869 329.31399606211977 369.831710066365L329.31399606211977 369.831710066365L329.31399606211977 393.52351307652646Q329.31399606211977 415.3395947765046 337.71145608155575 428.4119294459359Q346.1377733519177 441.51312136629315 363.3944094056041 441.51312136629315L363.3944094056041 441.51312136629315Q370.0315771185604 441.51312136629315 374.70645176855567 439.6374000561098Q379.381326418551 437.76167874592653 382.8153392787327 434.55852389315197Q386.2493521389145 431.3265117894515 388.73107571854166 427.05563865241874Q391.21279929816876 422.8136227663119 393.0885206083521 418.023319112613L393.0885206083521 418.023319112613L408.06543383889266 424.8913448329765Q405.3528522518583 430.92251027648894 401.8322676388989 436.5208169561129Q398.2828257750135 442.11912363573697 393.0885206083521 446.70742653295457Q387.8942154416906 451.2668721792463 380.6221882083646 453.97945376628064Q373.35016097503853 456.66317810238905 363.3944094056041 456.66317810238905Z " fill="#ffffff" transform="matrix(0.6484265339235615,0,0,0.6484265339235614,0,52.51942479801126)"/><path d="M649.479048063888 426.9093042391079L649.479048063888 426.9093042391079Q629.2182833094056 426.9093042391079 619.3296237220768 412.2081636526125Q609.4409641347481 397.4850482670342 609.4409641347481 369.79680142251374L609.4409641347481 369.79680142251374Q609.4409641347481 342.10855457799335 619.3296237220768 327.40741399149795Q629.2182833094056 312.68429860591965 649.479048063888 312.68429860591965L649.479048063888 312.68429860591965Q657.0603537475067 312.68429860591965 662.5980031164107 314.7499297197172Q668.1356524853148 316.79358603443177 672.0911163202463 320.28757908862127Q676.0465801551778 323.7595973437278 678.749480442381 328.11060756215244Q681.4304059305013 332.46161778057706 683.4960370442988 336.90052719533355L683.4960370442988 336.90052719533355L672.0911163202463 342.10855457799335Q670.6627543798544 338.4827127293061 668.7729216587204 335.2304424650291Q666.8830889375865 331.9781722007521 664.2680878467152 329.5389695025443Q661.6530867558438 327.0777920052536 658.0931693044054 325.64943006486175Q654.5332518529672 324.24304292355276 649.479048063888 324.24304292355276L649.479048063888 324.24304292355276Q636.3381182122823 324.24304292355276 629.92147688006 334.19762690813036Q623.5268103469208 344.17418569179085 623.5268103469208 360.78713379850313L623.5268103469208 360.78713379850313L623.5268103469208 378.82844384560735Q623.5268103469208 395.4413919523196 629.92147688006 405.3959759368972Q636.3381182122823 415.37253472055767 649.479048063888 415.37253472055767L649.479048063888 415.37253472055767Q654.5332518529672 415.37253472055767 658.0931693044054 413.9441727801658Q661.6530867558438 412.51581083977385 664.2680878467152 410.07660814156606Q666.8830889375865 407.61543064427536 668.7729216587204 404.36316037999836Q670.6627543798544 401.1328649148043 672.0911163202463 397.4850482670342L672.0911163202463 397.4850482670342L683.4960370442988 402.71505044877694Q681.4304059305013 407.30778345711406 678.749480442381 411.57089447920686Q676.0465801551778 415.8340055012997 672.0911163202463 419.32799855548916Q668.1356524853148 422.8000168105957 662.5980031164107 424.8656479243933Q657.0603537475067 426.9093042391079 649.479048063888 426.9093042391079ZM708.8110055878603 425.01947151797395L708.8110055878603 307.93774200400185L721.4684898596411 307.93774200400185L721.4684898596411 356.67784636999096L722.0837842339638 356.67784636999096Q723.358322580775 353.66729889562646 725.2481553019089 350.8984742111744Q727.1599628221259 348.12964952672235 729.9287875065779 346.0640184129248Q732.6976121910299 344.0203620982102 736.4992524323808 342.745823751399Q740.2789178746486 341.4712854045877 745.3550964628107 341.4712854045877L745.3550964628107 341.4712854045877Q758.1664043281721 341.4712854045877 765.9235084044544 349.62393586436315Q773.6806124807367 357.77658632413863 773.6806124807367 372.6535253032976L773.6806124807367 372.6535253032976L773.6806124807367 425.01947151797395L761.023128208956 425.01947151797395L761.023128208956 374.8729800106758Q761.023128208956 363.62188288020405 756.1007732143746 358.17213270763176Q751.2003930188761 352.72238253505947 741.7072798150406 352.72238253505947L741.7072798150406 352.72238253505947Q737.9056395736897 352.72238253505947 734.2797977250026 353.66729889562646Q730.6319810772324 354.61221525619345 727.7972319955314 356.5020479773274Q724.9405081147477 358.41385549754426 723.2044989871944 361.42440297190876Q721.4684898596411 364.41297564719036 721.4684898596411 368.3684394821218L721.4684898596411 368.3684394821218L721.4684898596411 425.01947151797395L708.8110055878603 425.01947151797395ZM800.4019681656073 425.01947151797395L800.4019681656073 414.2518199673271L824.3105495678598 414.2518199673271L824.3105495678598 354.12876967636845L800.4019681656073 354.12876967636845L800.4019681656073 343.3830929248046L836.9680338396406 343.3830929248046L836.9680338396406 363.9515048664483L837.7591266066269 363.9515048664483Q840.2862285011664 354.3045680690321 847.3181642077113 348.83284309737684Q854.3720747133392 343.3830929248046 865.2715750584837 343.3830929248046L865.2715750584837 343.3830929248046L876.6764957825361 343.3830929248046L876.6764957825361 356.04057719658533L861.3161112235522 356.04057719658533Q850.4166108784076 356.04057719658533 843.6923223590242 362.36931933247575Q836.9680338396406 368.6980614683661 836.9680338396406 378.982267439188L836.9680338396406 378.982267439188L836.9680338396406 414.2518199673271L868.6117445190924 414.2518199673271L868.6117445190924 425.01947151797395L800.4019681656073 425.01947151797395ZM930.6246275311851 426.9093042391079L930.6246275311851 426.9093042391079Q922.0764306879165 426.9093042391079 915.1983185749523 423.92073156382634Q908.320206461988 420.9101840894618 903.4857506637385 415.28463552422585Q898.6732696645719 409.68106175807293 896.1241929709494 401.8360584854588Q893.5970910764098 394.01303001192764 893.5970910764098 384.1902948218478L893.5970910764098 384.1902948218478Q893.5970910764098 374.54335802443154 896.1241929709494 366.63243035456856Q898.6732696645719 358.72150268470557 903.4857506637385 353.11792891855265Q908.320206461988 347.4923803533167 915.1983185749523 344.4818328789522Q922.0764306879165 341.4712854045877 930.6246275311851 341.4712854045877L930.6246275311851 341.4712854045877Q939.1728243744536 341.4712854045877 946.050936487418 344.4818328789522Q952.9290486003821 347.4923803533167 957.7635043986317 353.11792891855265Q962.5759853977984 358.72150268470557 965.1250620914208 366.63243035456856Q967.6521639859604 374.54335802443154 967.6521639859604 384.1902948218478L967.6521639859604 384.1902948218478Q967.6521639859604 394.01303001192764 965.1250620914208 401.8360584854588Q962.5759853977984 409.68106175807293 957.7635043986317 415.28463552422585Q952.9290486003821 420.9101840894618 946.050936487418 423.92073156382634Q939.1728243744536 426.9093042391079 930.6246275311851 426.9093042391079ZM930.6246275311851 416.00980389396335L930.6246275311851 416.00980389396335Q941.2164806891683 416.00980389396335 947.7210212177223 409.68106175807293Q954.2035869471933 403.35231962218256 954.2035869471933 390.0575661769962L954.2035869471933 390.0575661769962L954.2035869471933 378.34499826578235Q954.2035869471933 365.050244820596 947.7210212177223 358.72150268470557Q941.2164806891683 352.3927605488152 930.6246275311851 352.3927605488152L930.6246275311851 352.3927605488152Q920.0327743732018 352.3927605488152 913.5282338446478 358.72150268470557Q907.0456681151768 365.050244820596 907.0456681151768 378.34499826578235L907.0456681151768 378.34499826578235L907.0456681151768 390.0575661769962Q907.0456681151768 403.35231962218256 913.5282338446478 409.68106175807293Q920.0327743732018 416.00980389396335 930.6246275311851 416.00980389396335ZM1006.2618859747083 425.01947151797395L993.6044017029277 425.01947151797395L993.6044017029277 343.3830929248046L1006.2618859747083 343.3830929248046L1006.2618859747083 356.67784636999096L1006.877180349031 356.67784636999096Q1008.1517186958423 353.66729889562646 1010.0415514169762 350.8984742111744Q1011.9533589371932 348.12964952672235 1014.7221836216452 346.0640184129248Q1017.4910083060971 344.0203620982102 1021.292648547448 342.745823751399Q1025.072313989716 341.4712854045877 1030.148492577878 341.4712854045877L1030.148492577878 341.4712854045877Q1042.9598004432394 341.4712854045877 1050.716904519522 349.62393586436315Q1058.474008595804 357.77658632413863 1058.474008595804 372.6535253032976L1058.474008595804 372.6535253032976L1058.474008595804 425.01947151797395L1045.8165243240232 425.01947151797395L1045.8165243240232 374.8729800106758Q1045.8165243240232 363.62188288020405 1040.8941693294419 358.17213270763176Q1035.9937891339434 352.72238253505947 1026.5006759301077 352.72238253505947L1026.5006759301077 352.72238253505947Q1022.699035688757 352.72238253505947 1019.0731938400697 353.66729889562646Q1015.4253771922996 354.61221525619345 1012.5906281105987 356.5020479773274Q1009.7339042298148 358.41385549754426 1007.9978951022616 361.42440297190876Q1006.2618859747083 364.41297564719036 1006.2618859747083 368.3684394821218L1006.2618859747083 368.3684394821218L1006.2618859747083 425.01947151797395ZM1125.5410953969758 325.3417828777004L1125.5410953969758 325.3417828777004Q1120.0034460280717 325.3417828777004 1117.8059661197763 323.0564037730733Q1115.586511412398 320.74904986936326 1115.586511412398 317.27703161425677L1115.586511412398 317.27703161425677L1115.586511412398 314.7499297197172Q1115.586511412398 311.2559366655277 1117.8059661197763 308.9705575609006Q1120.0034460280717 306.6632036571906 1125.5410953969758 306.6632036571906L1125.5410953969758 306.6632036571906Q1131.07874476588 306.6632036571906 1133.2981994732581 308.9705575609006Q1135.5176541806363 311.2559366655277 1135.5176541806363 314.7499297197172L1135.5176541806363 314.7499297197172L1135.5176541806363 317.27703161425677Q1135.5176541806363 320.74904986936326 1133.2981994732581 323.0564037730733Q1131.07874476588 325.3417828777004 1125.5410953969758 325.3417828777004ZM1089.7880972890116 425.01947151797395L1089.7880972890116 414.2518199673271L1119.2123532610854 414.2518199673271L1119.2123532610854 354.12876967636845L1089.7880972890116 354.12876967636845L1089.7880972890116 343.3830929248046L1131.869837532866 343.3830929248046L1131.869837532866 414.2518199673271L1159.404260783806 414.2518199673271L1159.404260783806 425.01947151797395L1089.7880972890116 425.01947151797395ZM1181.0933874786801 425.01947151797395L1181.0933874786801 414.2518199673271L1208.605835930537 414.2518199673271L1208.605835930537 354.12876967636845L1179.5112019447076 354.12876967636845L1179.5112019447076 343.3830929248046L1208.605835930537 343.3830929248046L1208.605835930537 326.61632122451164Q1208.605835930537 318.3757715684044 1212.9568461489616 313.1677441857446Q1217.3078563673862 307.93774200400185 1226.6471459776412 307.93774200400185L1226.6471459776412 307.93774200400185L1254.0277456350004 307.93774200400185L1254.0277456350004 318.7053935546487L1221.2633202023176 318.7053935546487L1221.2633202023176 343.3830929248046L1254.0277456350004 343.3830929248046L1254.0277456350004 354.12876967636845L1221.2633202023176 354.12876967636845L1221.2633202023176 414.2518199673271L1250.37992898723 414.2518199673271L1250.37992898723 425.01947151797395L1181.0933874786801 425.01947151797395ZM1323.0066399563889 377.55390549879604L1336.7628641823171 343.3830929248046L1349.420348454098 343.3830929248046L1308.920793744216 442.90695797149743Q1307.4924318038243 446.378976226604 1305.756422676271 448.99397731747536Q1304.020413548718 451.60897840834673 1301.6471352477588 453.25708833956816Q1299.2738569467997 454.9271730698726 1295.9556622852738 455.7841902341077Q1292.6374676237483 456.6631821974259 1288.044734615411 456.6631821974259L1288.044734615411 456.6631821974259L1276.024519517036 456.6631821974259L1276.024519517036 445.89553064677904L1295.010745924707 445.89553064677904L1304.1742371422984 423.43728598400133L1271.2779629151182 343.3830929248046L1284.24309437406 343.3830929248046L1297.9993185999888 377.55390549879604L1310.1953320910275 408.56034700484236L1310.832601264433 408.56034700484236L1323.0066399563889 377.55390549879604Z " fill="#000000E5" transform="matrix(0.6484265339235615,0,0,0.6484265339235614,0,52.51942479801126)"/></g></svg>